<svg xmlns="http://www.w3.org/2000/svg" xmlns:xlink="http://www.w3.org/1999/xlink" width="216" height="243.952" viewBox="0 0 216 243.952">
  <defs>
    <clipPath id="clip-path">
      <rect id="Rectangle_3637" data-name="Rectangle 3637" width="216" height="216" transform="translate(0.149 0.149)" fill="none"/>
    </clipPath>
    <clipPath id="clip-path-2">
      <path id="Path_101672" data-name="Path 101672" d="M30,115.519A86.519,86.519,0,1,0,116.519,29,86.519,86.519,0,0,0,30,115.519" transform="translate(-30 -29)" fill="none" opacity="0.2"/>
    </clipPath>
    <linearGradient id="linear-gradient" x1="-0.121" y1="1.126" x2="-0.117" y2="1.126" gradientUnits="objectBoundingBox">
      <stop offset="0" stop-color="#ebc03f"/>
      <stop offset="1" stop-color="#b89535"/>
    </linearGradient>
    <clipPath id="clip-path-3">
      <rect id="Rectangle_3634" data-name="Rectangle 3634" width="89.79" height="111.775" rx="16" fill="none"/>
    </clipPath>
    <linearGradient id="linear-gradient-2" x1="-0.715" y1="1.525" x2="-0.707" y2="1.525" gradientUnits="objectBoundingBox">
      <stop offset="0" stop-color="#fff"/>
      <stop offset="0.719" stop-color="#fafafa"/>
      <stop offset="1" stop-color="#fafafa"/>
    </linearGradient>
    <clipPath id="clip-path-5">
      <rect id="Rectangle_3635" data-name="Rectangle 3635" width="79" height="78" transform="translate(-0.301 -0.439)" fill="none"/>
    </clipPath>
    <clipPath id="clip-path-6">
      <rect id="Rectangle_3638" data-name="Rectangle 3638" width="204.149" height="17.952" transform="translate(0 0)" fill="none"/>
    </clipPath>
  </defs>
  <g id="Group_89438" data-name="Group 89438" transform="translate(-0.149 -0.149)">
    <g id="Group_89437" data-name="Group 89437" transform="translate(0)" clip-path="url(#clip-path)">
      <g id="Group_89429" data-name="Group 89429" transform="translate(21.63 20.909)">
        <g id="Group_89428" data-name="Group 89428" clip-path="url(#clip-path-2)">
          <path id="Path_101689" data-name="Path 101689" d="M0,0H174.045V174.045H0Z" transform="translate(-1.009 0.006) rotate(-0.334)" opacity="0.58" fill="url(#linear-gradient)"/>
        </g>
      </g>
      <g id="Group_89431" data-name="Group 89431" transform="translate(64.168 45.823)">
        <g id="Group_89430" data-name="Group 89430" clip-path="url(#clip-path-3)">
          <rect id="Rectangle_3633" data-name="Rectangle 3633" width="89.79" height="111.775" fill="url(#linear-gradient-2)"/>
        </g>
      </g>
      <g id="Group_89436" data-name="Group 89436">
        <g id="Group_89435" data-name="Group 89435" clip-path="url(#clip-path)">
          <path id="Path_101673" data-name="Path 101673" d="M103.533,83.556h28.984a3.533,3.533,0,0,1,0,7.066H103.533a3.533,3.533,0,0,1,0-7.066" transform="translate(-27.901 -23.313)" fill="#e53337"/>
          <path id="Path_101674" data-name="Path 101674" d="M103.533,111.356h65.034a3.533,3.533,0,1,1,0,7.066H103.533a3.533,3.533,0,0,1,0-7.066" transform="translate(-27.901 -31.069)" fill="#d5d5d5"/>
          <path id="Path_101675" data-name="Path 101675" d="M103.533,139.156h65.034a3.533,3.533,0,0,1,0,7.066H103.533a3.533,3.533,0,0,1,0-7.066" transform="translate(-27.901 -38.826)" fill="#d5d5d5"/>
          <path id="Path_101676" data-name="Path 101676" d="M103.533,166.956h65.034a3.533,3.533,0,0,1,0,7.066H103.533a3.533,3.533,0,0,1,0-7.066" transform="translate(-27.901 -46.582)" fill="#d5d5d5"/>
          <path id="Path_101677" data-name="Path 101677" d="M103.533,194.756h65.034a3.533,3.533,0,1,1,0,7.066H103.533a3.533,3.533,0,0,1,0-7.066" transform="translate(-27.901 -54.338)" fill="#d5d5d5"/>
          <path id="Path_101678" data-name="Path 101678" d="M269.973,46.424H226.655A3.754,3.754,0,0,0,223,50.27V71.7a3.755,3.755,0,0,0,3.655,3.847h43.318a3.754,3.754,0,0,0,3.655-3.847V50.27a3.754,3.754,0,0,0-3.655-3.846" transform="translate(-62.219 -12.953)" fill="#fff"/>
          <path id="Path_101679" data-name="Path 101679" d="M236.326,69.652A4.326,4.326,0,1,0,232,65.326a4.326,4.326,0,0,0,4.326,4.326" transform="translate(-64.73 -17.019)" fill="#c6ab5f"/>
          <path id="Path_101680" data-name="Path 101680" d="M256.326,61h14.42a4.326,4.326,0,0,1,0,8.652h-14.42a4.326,4.326,0,0,1,0-8.652" transform="translate(-70.31 -17.019)" fill="#d5d5d5"/>
          <path id="Path_101681" data-name="Path 101681" d="M167.671,190.687a44.858,44.858,0,0,0,25.088-7.623L222.1,211.075l10.643-12.347L204.429,171.7a45.065,45.065,0,1,0-36.758,18.989m38.435-45.062a38.15,38.15,0,1,1-38.15-38.15,38.15,38.15,0,0,1,38.15,38.15" transform="translate(-34.209 -28.058)" fill="#97bb9f" fill-rule="evenodd"/>
          <g id="Group_89434" data-name="Group 89434" transform="translate(94.45 78.588)" opacity="0.3">
            <g id="Group_89433" data-name="Group 89433">
              <g id="Group_89432" data-name="Group 89432" clip-path="url(#clip-path-5)">
                <path id="Path_101682" data-name="Path 101682" d="M170.294,186.867A38.935,38.935,0,1,0,131,147.934a39.115,39.115,0,0,0,39.294,38.934" transform="translate(-131 -109)" fill="#fff"/>
              </g>
            </g>
          </g>
          <path id="Path_101683" data-name="Path 101683" d="M185.179,156.025l9.509-9.472a4.932,4.932,0,0,0-.1-6.9,5.006,5.006,0,0,0-6.946-.1l-9.53,9.472-9.509-9.472a5,5,0,0,0-7.146-.1,4.934,4.934,0,0,0,.1,7.1l9.525,9.472-9.525,9.472a4.934,4.934,0,0,0-.1,7.1,5,5,0,0,0,7.146-.1l9.53-9.472,9.531,9.472a5.006,5.006,0,0,0,6.822-.22,4.931,4.931,0,0,0,.2-6.782Z" transform="translate(-44.641 -38.503)" fill="#026291"/>
          <path id="Path_101684" data-name="Path 101684" d="M260.6,249.065l10.642-12.348,1.6,1.531a8.642,8.642,0,0,1,.545,11.769,7.764,7.764,0,0,1-5.479,2.724,7.685,7.685,0,0,1-5.7-2.151l-1.6-1.53Z" transform="translate(-72.71 -66.046)" fill="#c6ab5f"/>
          <path id="Path_101685" data-name="Path 101685" d="M42.555,82.634a13.633,13.633,0,0,0-.4-3.11c-.9-3.664-4.941-6.017-9.237-6.57s-8.759.706-10.48,3.893a6.033,6.033,0,0,0-.717,4.717,6.137,6.137,0,0,0,2.64,3.26c3.6,2.37,9.895,2.854,12.769,1.863a32.14,32.14,0,0,0,3.891-1.645c-.722,4.143-3.416,8.067-7.011,11.6-7.813,7.687-19.935,13.521-26.538,15.666a.707.707,0,0,0-.441.879.667.667,0,0,0,.841.463c6.733-2.187,19.092-8.146,27.059-15.984,4.116-4.048,7.048-8.606,7.55-13.4,9.3-5.192,16.945-14.612,23.478-22.54a.723.723,0,0,0-.071-.991.654.654,0,0,0-.949.074c-6.266,7.6-13.539,16.648-22.383,21.819m-1.353.753a12.28,12.28,0,0,0-.351-3.513c-.782-3.172-4.379-5.047-8.1-5.526a12.025,12.025,0,0,0-6.462.807,5.653,5.653,0,0,0-2.681,2.384A4.65,4.65,0,0,0,23,81.14a4.747,4.747,0,0,0,2.076,2.5c3.278,2.161,9.012,2.62,11.628,1.717a31.639,31.639,0,0,0,4.5-1.965" transform="translate(-1.953 -16.9)" fill-rule="evenodd"/>
          <path id="Path_101686" data-name="Path 101686" d="M283.326,178A4.326,4.326,0,1,1,279,182.326,4.326,4.326,0,0,1,283.326,178" transform="translate(-77.843 -49.663)" fill="#e53337"/>
          <path id="Path_101687" data-name="Path 101687" d="M57.61,222.277a7.054,7.054,0,0,0,2.211-1.231,4.284,4.284,0,0,0,1.249-2.41c.261-1.153.366-2.38.681-3.534a1.109,1.109,0,0,1,.44-.663,1.035,1.035,0,0,1,.724-.212,1.05,1.05,0,0,1,.9.616,1.274,1.274,0,0,1,.113.321c.022.107.037.439.061.577.06.338.11.676.156,1.016a9.947,9.947,0,0,0,.742,3.132,4.847,4.847,0,0,0,2.256,2.657,5.5,5.5,0,0,0,3.284.01q.193-.049.381-.084a1.115,1.115,0,0,1,1.279.924,1.169,1.169,0,0,1-.85,1.366q-.184.043-.364.081a11.611,11.611,0,0,0-5.154,3.65c-.378.457-.93,1.735-1.494,2.55a2.973,2.973,0,0,1-1.277,1.138,1.1,1.1,0,0,1-.668.032,1.126,1.126,0,0,1-.656-.462,1.349,1.349,0,0,1-.219-.535,4.175,4.175,0,0,1-.021-.51c-.115-.416-.256-.822-.358-1.242a7.2,7.2,0,0,0-1.293-2.473,4.511,4.511,0,0,0-1.945-1.67c-.109-.028-.99-.255-1.3-.385a1.417,1.417,0,0,1-.75-.683,1.37,1.37,0,0,1-.12-.761,1.267,1.267,0,0,1,.411-.8,1.428,1.428,0,0,1,.663-.33,8.588,8.588,0,0,1,.916-.083m5.167-1.632c.041.1.084.192.131.289a6.938,6.938,0,0,0,3.419,3.78l.045.018a15.256,15.256,0,0,0-2.322,2.228,13.632,13.632,0,0,0-.956,1.6,10,10,0,0,0-1.553-2.934,6.75,6.75,0,0,0-1.734-1.808,7.665,7.665,0,0,0,1.447-.993,5.8,5.8,0,0,0,1.523-2.185" transform="translate(-15.515 -59.77)" fill="#e53337" fill-rule="evenodd"/>
        </g>
      </g>
    </g>
    <g id="Group_89439" data-name="Group 89439" transform="translate(6.149 296.149)">
      <g id="Group_89439-2" data-name="Group 89439" transform="translate(0 -70)" clip-path="url(#clip-path-6)">
        <path id="Path_101688" data-name="Path 101688" d="M8.592,17.76l-3.5-6.36H4.1v6.36H0V.912H6.888a7.506,7.506,0,0,1,3.384.7,4.76,4.76,0,0,1,2.112,1.92,5.259,5.259,0,0,1,.7,2.688,4.972,4.972,0,0,1-.96,3,5.042,5.042,0,0,1-2.784,1.872l3.888,6.672ZM4.1,8.5H6.648a2.285,2.285,0,0,0,1.68-.552A2.059,2.059,0,0,0,8.9,6.384a2,2,0,0,0-.576-1.512,2.285,2.285,0,0,0-1.68-.552H4.1Zm24.177,2.352a10.477,10.477,0,0,1-.072,1.2H18.921a2.868,2.868,0,0,0,.792,1.92,2.526,2.526,0,0,0,1.752.648,2.157,2.157,0,0,0,2.136-1.3h4.368a6.115,6.115,0,0,1-3.408,4.032,7.054,7.054,0,0,1-2.952.6,7.183,7.183,0,0,1-3.5-.84,5.975,5.975,0,0,1-2.4-2.4,7.409,7.409,0,0,1-.864-3.648,7.581,7.581,0,0,1,.84-3.648,5.975,5.975,0,0,1,2.4-2.4,7.234,7.234,0,0,1,3.528-.84,7.161,7.161,0,0,1,3.456.816A5.781,5.781,0,0,1,27.417,7.32a6.988,6.988,0,0,1,.864,3.528m-4.2-1.08a2.11,2.11,0,0,0-.72-1.68,2.883,2.883,0,0,0-3.552-.024,2.691,2.691,0,0,0-.864,1.7Zm11.813,8.184a7.7,7.7,0,0,1-3.12-.6,5.376,5.376,0,0,1-2.16-1.632,4.386,4.386,0,0,1-.888-2.352h4.056A1.559,1.559,0,0,0,34.43,14.5a2.293,2.293,0,0,0,1.416.432,2.026,2.026,0,0,0,1.176-.288.942.942,0,0,0,.432-.792.878.878,0,0,0-.6-.84,11.136,11.136,0,0,0-1.944-.624,19.775,19.775,0,0,1-2.4-.7,4.309,4.309,0,0,1-1.656-1.176,3.252,3.252,0,0,1-.7-2.184,3.682,3.682,0,0,1,.624-2.088,4.34,4.34,0,0,1,1.872-1.512,7.254,7.254,0,0,1,2.952-.552,5.846,5.846,0,0,1,3.96,1.248,4.836,4.836,0,0,1,1.68,3.312H37.454a1.617,1.617,0,0,0-.624-1.1,2.072,2.072,0,0,0-1.344-.408,1.815,1.815,0,0,0-1.1.288A.851.851,0,0,0,34,8.256a.922.922,0,0,0,.6.864,10.162,10.162,0,0,0,1.92.576,19.2,19.2,0,0,1,2.424.768,3.944,3.944,0,0,1,1.632,1.2,3.309,3.309,0,0,1,.744,2.208,3.533,3.533,0,0,1-.672,2.112,4.311,4.311,0,0,1-1.9,1.44,7.163,7.163,0,0,1-2.856.528M57.053,4.368V17.76h-4.1V15.936a4.582,4.582,0,0,1-1.7,1.44,5.185,5.185,0,0,1-2.352.528,5.369,5.369,0,0,1-2.712-.672,4.689,4.689,0,0,1-1.824-1.992,6.738,6.738,0,0,1-.648-3.048V4.368h4.08V11.64a2.939,2.939,0,0,0,.7,2.088,2.44,2.44,0,0,0,1.872.744,2.47,2.47,0,0,0,1.9-.744,2.939,2.939,0,0,0,.7-2.088V4.368ZM64.1,17.76H60V0h4.1Zm10.439-3.48v3.48H72.455a5.149,5.149,0,0,1-3.48-1.08A4.552,4.552,0,0,1,67.727,13.1V7.776H66.1V4.368h1.632V1.1h4.1V4.368h2.688V7.776H71.831v5.376a1.125,1.125,0,0,0,.288.864,1.406,1.406,0,0,0,.96.264Zm22.443,3.48h-4.1L86.018,7.368V17.76h-4.1V.912h4.1l6.864,10.44V.912h4.1Zm9.071.192a7.463,7.463,0,0,1-3.552-.84,6.253,6.253,0,0,1-2.472-2.4,7.248,7.248,0,0,1-.888-3.648,7.049,7.049,0,0,1,.912-3.624,6.167,6.167,0,0,1,2.5-2.424,7.93,7.93,0,0,1,7.1,0,6.167,6.167,0,0,1,2.5,2.424,7.049,7.049,0,0,1,.912,3.624,7.035,7.035,0,0,1-.936,3.648,6.172,6.172,0,0,1-2.52,2.4,7.463,7.463,0,0,1-3.552.84m0-3.552a2.636,2.636,0,0,0,1.992-.864,3.4,3.4,0,0,0,.84-2.472,3.464,3.464,0,0,0-.816-2.472,2.561,2.561,0,0,0-1.968-.864,2.588,2.588,0,0,0-1.992.864,3.477,3.477,0,0,0-.792,2.472,3.6,3.6,0,0,0,.768,2.472,2.561,2.561,0,0,0,1.968.864m16.65-.12v3.48h-2.088a5.149,5.149,0,0,1-3.48-1.08,4.552,4.552,0,0,1-1.248-3.576V7.776h-1.632V4.368h1.632V1.1H120V4.368h2.688V7.776H120v5.376a1.125,1.125,0,0,0,.288.864,1.406,1.406,0,0,0,.96.264ZM141.047.912V4.2h-6.864V7.752h5.136v3.192h-5.136V17.76h-4.1V.912Zm8.253,17.04a7.463,7.463,0,0,1-3.552-.84,6.253,6.253,0,0,1-2.472-2.4,7.248,7.248,0,0,1-.888-3.648A7.049,7.049,0,0,1,143.3,7.44a6.167,6.167,0,0,1,2.5-2.424,7.93,7.93,0,0,1,7.1,0,6.167,6.167,0,0,1,2.5,2.424,7.049,7.049,0,0,1,.912,3.624,7.035,7.035,0,0,1-.936,3.648,6.172,6.172,0,0,1-2.52,2.4,7.463,7.463,0,0,1-3.552.84m0-3.552a2.636,2.636,0,0,0,1.992-.864,3.4,3.4,0,0,0,.84-2.472,3.464,3.464,0,0,0-.816-2.472,2.561,2.561,0,0,0-1.968-.864,2.588,2.588,0,0,0-1.992.864,3.477,3.477,0,0,0-.792,2.472,3.6,3.6,0,0,0,.768,2.472,2.561,2.561,0,0,0,1.968.864M171.709,4.368V17.76h-4.1V15.936a4.582,4.582,0,0,1-1.7,1.44,5.185,5.185,0,0,1-2.352.528,5.369,5.369,0,0,1-2.712-.672,4.689,4.689,0,0,1-1.824-1.992,6.738,6.738,0,0,1-.648-3.048V4.368h4.08V11.64a2.939,2.939,0,0,0,.7,2.088,2.44,2.44,0,0,0,1.872.744,2.47,2.47,0,0,0,1.9-.744,2.939,2.939,0,0,0,.7-2.088V4.368Zm11.108-.144a4.8,4.8,0,0,1,3.744,1.536,5.869,5.869,0,0,1,1.416,4.176V17.76H183.9V10.488a2.939,2.939,0,0,0-.7-2.088,2.727,2.727,0,0,0-3.744,0,2.939,2.939,0,0,0-.7,2.088V17.76h-4.1V4.368h4.1V6.144a4.236,4.236,0,0,1,1.68-1.392,5.239,5.239,0,0,1,2.376-.528m7.2,6.816a8.109,8.109,0,0,1,.768-3.624,5.9,5.9,0,0,1,2.136-2.4,5.545,5.545,0,0,1,3-.84,5.2,5.2,0,0,1,2.4.552,4.376,4.376,0,0,1,1.728,1.488V0h4.1V17.76h-4.1V15.84a4.162,4.162,0,0,1-1.656,1.536,5.084,5.084,0,0,1-2.472.576,5.545,5.545,0,0,1-3-.84,6.075,6.075,0,0,1-2.136-2.424,8.263,8.263,0,0,1-.768-3.648m10.032.024a3.328,3.328,0,0,0-.864-2.424,2.73,2.73,0,0,0-2.064-.888,2.807,2.807,0,0,0-2.088.888,3.3,3.3,0,0,0-.84,2.4,3.472,3.472,0,0,0,.84,2.448,2.807,2.807,0,0,0,2.088.888,2.73,2.73,0,0,0,2.064-.888,3.328,3.328,0,0,0,.864-2.424" fill="#303030"/>
      </g>
    </g>
  </g>
</svg>
