<svg xmlns="http://www.w3.org/2000/svg" width="26.574" height="26.357" viewBox="0 0 26.574 26.357">
  <g id="Outline" transform="translate(0.3 0.337)">
    <g id="Outline-2" data-name="Outline" transform="translate(0 0)">
      <path id="Path_76359" data-name="Path 76359" d="M24.622,22.943H23.269V11.976a1.324,1.324,0,0,0,.694.059,1.341,1.341,0,0,0,.885-.581l.5-.753a1.349,1.349,0,0,0-.333-1.847L13.78.725a1.353,1.353,0,0,0-1.586,0L.957,8.855A1.349,1.349,0,0,0,.624,10.7l.5.753a1.337,1.337,0,0,0,1.58.517V22.943H1.353A1.353,1.353,0,0,0,0,24.3v.541a1.353,1.353,0,0,0,1.353,1.353H24.622a1.353,1.353,0,0,0,1.353-1.353V24.3a1.353,1.353,0,0,0-1.353-1.353ZM2.11,11.5a.806.806,0,0,1-.531-.348l-.5-.753a.812.812,0,0,1,.2-1.108L12.512,1.164a.812.812,0,0,1,.951,0L24.7,9.293a.808.808,0,0,1,.2,1.108l-.5.753a.812.812,0,0,1-1.151.207L13.463,4.284a.812.812,0,0,0-.951,0L2.727,11.362a.812.812,0,0,1-.617.14Zm17.1,6.029H17.857V14.014A1.353,1.353,0,0,0,16.5,12.661H9.47a1.353,1.353,0,0,0-1.353,1.353v3.517H7.305a1.353,1.353,0,0,0-1.353,1.353v4.059H3.247V11.654l9.582-6.931a.271.271,0,0,1,.317,0l9.582,6.931v11.29H20.563V18.884A1.353,1.353,0,0,0,19.21,17.531Zm-.541,4.329H7.846a.271.271,0,0,0-.271.271v.812H6.494V20.778H20.022v2.165H18.94v-.812A.271.271,0,0,0,18.669,21.86ZM18.4,22.4v.541H8.117V22.4Zm-11.9-2.165V18.884a.812.812,0,0,1,.812-.812h11.9a.812.812,0,0,1,.812.812v1.353Zm8.388-5.411H11.093a.812.812,0,0,0-.812.812v1.894H8.658V14.014A.812.812,0,0,1,9.47,13.2H16.5a.812.812,0,0,1,.812.812v3.517H15.693V15.637A.812.812,0,0,0,14.881,14.826Zm.271.812v1.894H10.823V15.637a.271.271,0,0,1,.271-.271h3.788A.271.271,0,0,1,15.152,15.637Zm10.282,9.2a.812.812,0,0,1-.812.812H1.353a.812.812,0,0,1-.812-.812V24.3a.812.812,0,0,1,.812-.812H24.622a.812.812,0,0,1,.812.812Z" transform="translate(0 -0.469)" fill="#b89535" stroke="#b89535" stroke-width="0.6"/>
    </g>
  </g>
</svg>
