<svg xmlns="http://www.w3.org/2000/svg" width="50.837" height="47.968" viewBox="0 0 50.837 47.968">
  <g id="danger" transform="translate(-0.69 -1.34)">
    <path id="Path_101284" data-name="Path 101284" d="M12.984,23.274a1.746,1.746,0,0,1-1.734-1.734V9.984a1.734,1.734,0,1,1,3.467,0V21.541A1.746,1.746,0,0,1,12.984,23.274Z" transform="translate(13.123 8.406)" fill="#b89535" stroke="#f9f7f2" stroke-width="1"/>
    <path id="Path_101285" data-name="Path 101285" d="M13.311,20.626a3.474,3.474,0,0,1-.462-.046,1.469,1.469,0,0,1-.416-.139,1.75,1.75,0,0,1-.416-.208l-.347-.277a2.344,2.344,0,0,1,0-3.282l.347-.277a1.75,1.75,0,0,1,.416-.208,1.469,1.469,0,0,1,.416-.139,1.978,1.978,0,0,1,.9,0,1.394,1.394,0,0,1,.439.139,1.75,1.75,0,0,1,.416.208l.347.277a2.344,2.344,0,0,1,0,3.282l-.347.277a1.75,1.75,0,0,1-.416.208,1.4,1.4,0,0,1-.439.139,2.832,2.832,0,0,1-.439.046Z" transform="translate(12.795 18.567)" fill="#b89535" stroke="#f9f7f2" stroke-width="1"/>
    <path id="Path_101286" data-name="Path 101286" d="M40.113,48.808H12.1c-4.507,0-7.951-1.641-9.708-4.6-1.734-2.959-1.5-6.772.693-10.725L17.092,8.289c2.311-4.161,5.5-6.449,9.015-6.449s6.7,2.288,9.015,6.449L49.128,33.507c2.2,3.953,2.45,7.743.693,10.725-1.757,2.936-5.2,4.577-9.708,4.577ZM26.106,5.307c-2.173,0-4.3,1.664-5.987,4.669L6.135,35.194c-1.572,2.82-1.826,5.409-.74,7.281s3.49,2.889,6.726,2.889H40.137c3.236,0,5.617-1.017,6.726-2.889s.832-4.438-.74-7.281L32.093,9.976c-1.687-3-3.814-4.669-5.987-4.669Z" transform="translate(0)" fill="#b89535" stroke="#f9f7f2" stroke-width="1"/>
  </g>
</svg>
