<svg xmlns="http://www.w3.org/2000/svg" width="45.419" height="46.968" viewBox="0 0 45.419 46.968">
  <g id="Icon" transform="translate(-3.014 -1.985)">
    <path id="Path_101283" data-name="Path 101283" d="M44.131,5.357A11.587,11.587,0,0,0,26.436,20.173l-1.5,4.125a1.565,1.565,0,0,0,2.088,1.973l4.559-1.951A11.592,11.592,0,0,0,44.131,5.357Zm1.8,9.439A10.021,10.021,0,0,1,31.9,22.754a.779.779,0,0,0-.626,0l-4.867,2.084,1.624-4.467a.87.87,0,0,0-.106-.8,10.024,10.024,0,1,1,18-4.769Zm-8.441,3.466a2.384,2.384,0,1,0-3.381,3.363,2.356,2.356,0,0,0,3.387.007,2.4,2.4,0,0,0-.006-3.37Zm-1.115,2.277a.764.764,0,0,1-1.131.007.836.836,0,0,1,0-1.179.791.791,0,0,1,1.14,0,.821.821,0,0,1-.006,1.172ZM40.592,6.757c-2.123-3.135-9.067-2.663-9.409,1.569a1.781,1.781,0,0,0,.748,1.54,1.924,1.924,0,0,0,2.5-.076,4.44,4.44,0,0,0,.48-.684c.314-.352.3-.371,1.093-.415a1.68,1.68,0,0,1,.911.222c.184.027.24.615.087.809a2.86,2.86,0,0,1-.86.876,4.872,4.872,0,0,0-2.3,4.278c-.005,1.422.524,2.164,1.928,2.185,1.225.035,1.964-.594,2.011-1.64a2.492,2.492,0,0,1,.235-1.362c.461-.633,1.593-1.3,2.139-2.109a4.3,4.3,0,0,0,.431-5.192Zm-1.085,3.258a5.8,5.8,0,0,1-1.819,2.173,3.44,3.44,0,0,0-1.466,3.227c.006.109-.639.077-.74.063a3.277,3.277,0,0,1,1.073-3.206,5.253,5.253,0,0,1,.5-.4,3.223,3.223,0,0,0,1.61-2.542,1.948,1.948,0,0,0-.9-1.738,3.208,3.208,0,0,0-1.754-.468,3.032,3.032,0,0,0-1.594.355,2.407,2.407,0,0,0-.855.843c-.1.171-.2.32-.258.406-.037,0-.61-.011-.55-.4.22-1.427,1.822-2.05,3.32-2.022,1.73-.032,3.638.813,3.652,2.67a2.489,2.489,0,0,1-.213,1.04Zm8.878,28.052a4.66,4.66,0,0,0-2.367-3.454l-4.473-2.49a4.711,4.711,0,0,0-5.628.806l-1.728,1.754c-.034.032-3.532,3.1-11.767-5.136s-5.2-11.773-5.2-11.777L18.98,16.11a4.691,4.691,0,0,0,.873-5.7L17.358,5.94A4.723,4.723,0,0,0,9.936,4.908L6.276,8.569A11.221,11.221,0,0,0,4.368,21.819c.249.8,2.14,6.075,10.924,14.858S29.349,47.352,30.149,47.6A11.224,11.224,0,0,0,43.4,45.693l3.655-3.655a4.658,4.658,0,0,0,1.33-3.97ZM15.991,6.7l2.494,4.47a3.127,3.127,0,0,1-.582,3.8L16.332,16.46,10.573,6.485l.47-.47a3.148,3.148,0,0,1,4.948.688Zm26.3,37.883A9.722,9.722,0,0,1,30.661,46.12C30.61,46.106,25.4,44.571,16.4,35.57S5.863,21.359,5.849,21.311A9.727,9.727,0,0,1,7.382,9.675L9.427,7.631l5.964,10.33c-.67,1.938-.7,6.066,5.924,12.692,4.07,4.044,8.611,7.1,12.347,5.95l10.6,6.009Zm3.655-3.655-.534.534L35.333,35.751l1.7-1.723a3.14,3.14,0,0,1,3.753-.537l4.473,2.49h0a3.148,3.148,0,0,1,.692,4.95Z" transform="translate(0 0)" fill="#b89535"/>
  </g>
</svg>
