<svg id="Group_88556" data-name="Group 88556" xmlns="http://www.w3.org/2000/svg" width="68.104" height="68.104" viewBox="0 0 68.104 68.104">
  <g id="play-button" opacity="1">
    <g id="Group_88556-2" data-name="Group 88556">
      <text id="Play_Tailer" data-name="Play Tailer" transform="translate(6 38)" fill="#fff" font-size="10" font-family="Brown-Regular, Brown" opacity="0"><tspan x="0" y="0">PLAY TAILER</tspan></text>
      <path id="Path_101269" data-name="Path 101269" d="M34.052,0A34.052,34.052,0,1,0,68.1,34.052,34.052,34.052,0,0,0,34.052,0ZM48.392,35.137A2.432,2.432,0,0,1,47.3,36.229v.012L27.842,45.97a2.432,2.432,0,0,1-3.52-2.189V24.323a2.432,2.432,0,0,1,3.52-2.177L47.3,31.875A2.432,2.432,0,0,1,48.392,35.137Z" fill="#fff"/>
      <text id="Play_Tailer-2" data-name="Play Tailer" transform="translate(6 37)" fill="#fff" font-size="10" font-family="Brown-Regular, Brown" opacity="0"><tspan x="0" y="0">PLAY TAILER</tspan></text>
    </g>
  </g>
  <g id="play-button-2" data-name="play-button" transform="translate(24.323 21.883)" opacity="0.7">
    <g id="Group_88556-3" data-name="Group 88556" transform="translate(0 0)">
      <path id="Path_101269-2" data-name="Path 101269" d="M52.813,39.115a2.432,2.432,0,0,1-1.092,1.092v.012L32.263,49.949a2.432,2.432,0,0,1-3.52-2.189V28.3a2.432,2.432,0,0,1,3.52-2.177l19.458,9.729A2.432,2.432,0,0,1,52.813,39.115Z" transform="translate(-28.743 -25.868)"/>
    </g>
  </g>
</svg>
