<svg id="Quotemarks-left" xmlns="http://www.w3.org/2000/svg" width="95.997" height="68" viewBox="0 0 95.997 68">
  <path id="Path_101322" data-name="Path 101322" d="M58.185,34.72c-.193-2.1-.045-7.8,5.4-15.728a1.508,1.508,0,0,0-.174-1.918c-2.219-2.227-3.593-3.632-4.557-4.616-1.267-1.3-1.846-1.887-2.692-2.658a1.5,1.5,0,0,0-1.992-.019c-9.488,8.285-20.026,25.4-18.5,46.377.894,12.315,9.845,21.254,21.284,21.254A21.366,21.366,0,0,0,58.185,34.72ZM56.95,74.4c-9.823,0-17.515-7.764-18.293-18.461v0C36.942,32.351,50.915,17.03,55.137,12.973c.412.407.882.886,1.575,1.595.835.853,1.978,2.02,3.706,3.76-6.608,10.216-5.361,17.5-4.815,18.539a1.553,1.553,0,0,0,1.348.829,18.353,18.353,0,0,1,0,36.706Z" transform="translate(17.757 -9.412)" fill="#b89535"/>
  <path id="Path_101323" data-name="Path 101323" d="M22.67,34.72c-.195-2.092-.051-7.789,5.4-15.728a1.51,1.51,0,0,0-.174-1.918c-2.215-2.223-3.587-3.626-4.55-4.61-1.271-1.3-1.852-1.892-2.7-2.664a1.5,1.5,0,0,0-1.992-.02C9.166,18.064-1.374,35.18.148,56.158v0c.9,12.314,9.85,21.252,21.288,21.252A21.366,21.366,0,0,0,22.67,34.72ZM21.437,74.4c-9.822,0-17.518-7.764-18.3-18.462h0C1.429,32.346,15.4,17.028,19.623,12.972c.413.407.885.889,1.579,1.6.833.853,1.975,2.018,3.7,3.756-6.608,10.218-5.361,17.5-4.815,18.537a1.557,1.557,0,0,0,1.349.831,18.353,18.353,0,0,1,0,36.706Z" transform="translate(-0.001 -9.412)" fill="#b89535"/>
</svg>
