<svg xmlns="http://www.w3.org/2000/svg" width="48.68" height="46.968" viewBox="0 0 48.68 46.968">
  <g id="support" transform="translate(-0.5 -9)">
    <path id="Path_101290" data-name="Path 101290" d="M6.229,41.284h-.2A5.531,5.531,0,0,1,.5,35.753v-4.3a5.531,5.531,0,0,1,5.531-5.531H7.964v-.048a16.876,16.876,0,1,1,33.753,0v.048h1.932a5.531,5.531,0,0,1,5.531,5.531v4.3a5.531,5.531,0,0,1-5.531,5.531H40.969A.964.964,0,0,1,40,40.319V25.876a15.165,15.165,0,1,0-30.33,0V40.319a.964.964,0,0,1-.964.964H7.94a9.869,9.869,0,0,0,9.869,9.788h1.656a4.041,4.041,0,0,1,3.949-3.185h2.852a4.041,4.041,0,1,1,0,8.082H23.414a4.042,4.042,0,0,1-3.95-3.185H17.809a11.58,11.58,0,0,1-11.58-11.5ZM28.6,51.928A2.329,2.329,0,0,0,26.266,49.6H23.414a2.329,2.329,0,1,0,0,4.659h2.852A2.329,2.329,0,0,0,28.6,51.928ZM7.964,27.635H6.031a3.82,3.82,0,0,0-3.82,3.82v4.3a3.82,3.82,0,0,0,3.82,3.82H7.964Zm33.753,0V39.572h1.932a3.82,3.82,0,0,0,3.82-3.82v-4.3a3.82,3.82,0,0,0-3.82-3.82Z" fill="#b89535" fill-rule="evenodd"/>
  </g>
</svg>
