<svg xmlns="http://www.w3.org/2000/svg" width="47.838" height="47.968" viewBox="0 0 47.838 47.968">
  <g id="text" transform="translate(-0.75 -0.75)">
    <path id="Path_101287" data-name="Path 101287" d="M24.669,48.218a4.935,4.935,0,0,1-3.921-2.091L17.48,41.77a1.029,1.029,0,0,0-.436-.218H15.955c-9.084,0-14.7-2.462-14.7-14.7V15.955c0-9.629,5.076-14.7,14.7-14.7H33.383c9.629,0,14.7,5.076,14.7,14.7V26.847c0,9.629-5.076,14.7-14.7,14.7H32.293a.569.569,0,0,0-.436.218L28.59,46.127A4.935,4.935,0,0,1,24.669,48.218Zm-8.714-43.7c-7.8,0-11.437,3.638-11.437,11.437V26.847c0,9.847,3.377,11.437,11.437,11.437h1.089a4.086,4.086,0,0,1,3.05,1.525l3.268,4.357a1.512,1.512,0,0,0,2.614,0l3.268-4.357a3.817,3.817,0,0,1,3.05-1.525h1.089c7.8,0,11.437-3.638,11.437-11.437V15.955c0-7.8-3.638-11.437-11.437-11.437Z" transform="translate(0 0)" fill="#b89535" stroke="#f9f7f2" stroke-width="1"/>
    <path id="Path_101288" data-name="Path 101288" d="M29.669,10.518H7.884a1.634,1.634,0,0,1,0-3.268H29.669a1.634,1.634,0,0,1,0,3.268Z" transform="translate(5.892 7.071)" fill="#b89535" stroke="#f9f7f2" stroke-width="1"/>
    <path id="Path_101289" data-name="Path 101289" d="M20.955,15.518H7.884a1.634,1.634,0,1,1,0-3.268H20.955a1.634,1.634,0,0,1,0,3.268Z" transform="translate(5.892 12.963)" fill="#b89535" stroke="#f9f7f2" stroke-width="1"/>
  </g>
</svg>
