<svg id="Group_89701" data-name="Group 89701" xmlns="http://www.w3.org/2000/svg" xmlns:xlink="http://www.w3.org/1999/xlink" width="54.347" height="69.038" viewBox="0 0 54.347 69.038">
  <defs>
    <clipPath id="clip-path">
      <rect id="Rectangle_75" data-name="Rectangle 75" width="54.347" height="69.038" fill="none"/>
    </clipPath>
    <clipPath id="clip-path-2">
      <path id="Path_381" data-name="Path 381" d="M595.3,501.313c.824,2.684,1.433,5.365,2.229,5.945,2.454,1.783,7.386.132,10.3,2.25,2.761,2.007,2.136,8.843,4.673,9.143,2.62.31,2.356-3.543,3.213-6.564a30.993,30.993,0,0,1,4.307-9.475,20.034,20.034,0,0,0-4.349-4.194,17.464,17.464,0,0,0-5.235-2.476,30.949,30.949,0,0,0-10.276-1.165l-.185.017-.006-.008c-2.853.143-6.027,1.3-6.912-.5.4,1.219,1.4,4.287,2.239,7.024" transform="translate(-593.058 -494.289)" fill="none"/>
    </clipPath>
    <clipPath id="clip-path-3">
      <path id="Path_424" data-name="Path 424" d="M654.67,500.387A17.49,17.49,0,0,0,650.7,504.6a30.958,30.958,0,0,0-4.282,9.413c-.015.061-.029.123-.041.18l-.009,0c-.746,2.758-.624,6.134-2.608,6.42,1.284,0,4.51-.005,7.372.042,2.807.045,5.545.3,6.342-.283,2.454-1.783,2.408-6.984,5.323-9.1,1.337-.97,3.5-.838,5.506-.7,2.135.142,4.083.283,4.635-.914,1.1-2.4-2.642-3.335-5.249-5.083A31,31,0,0,1,660,497.547a20.022,20.022,0,0,0-5.332,2.84" transform="translate(-643.756 -497.547)" fill="none"/>
    </clipPath>
    <clipPath id="clip-path-4">
      <path id="Path_426" data-name="Path 426" d="M603.735,431.3c-2.3,1.613-4.66,3.02-4.964,3.957-.938,2.885,2.157,7.066,1.044,10.492-1.055,3.247-7.75,4.764-7.252,7.27.515,2.588,4.1,1.146,7.235,1.027a31.011,31.011,0,0,1,10.344,1.168,20.04,20.04,0,0,0,2.645-5.432,17.465,17.465,0,0,0,.736-5.744,30.955,30.955,0,0,0-2.067-10.133c-.025-.058-.049-.117-.073-.17l.005-.008c-1.017-2.67-3.1-5.33-1.663-6.727-1.036.757-3.645,2.655-5.989,4.3" transform="translate(-592.536 -427.001)" fill="none"/>
    </clipPath>
    <clipPath id="clip-path-5">
      <path id="Path_462" data-name="Path 462" d="M684.3,450.591a31,31,0,0,1-9.055,5.134,20.052,20.052,0,0,0,1.054,5.949,17.476,17.476,0,0,0,2.78,5.08,30.942,30.942,0,0,0,7.628,6.982l.159.1s0,.006,0,.009c2.392,1.562,5.641,2.49,5.3,4.465.394-1.222,1.388-4.291,2.319-7,.909-2.655,1.994-5.182,1.69-6.119-.937-2.885-5.9-4.448-7.011-7.875-1.055-3.247,3.47-8.409,1.593-10.144a1.728,1.728,0,0,0-1.2-.518c-1.591,0-3.294,2.394-5.262,3.94" transform="translate(-675.241 -446.651)" fill="none"/>
    </clipPath>
  </defs>
  <path id="Path_273" data-name="Path 273" d="M594.458,584.268V588.2h-.765v-5.354h.536l3.213,3.932v-3.932h.765V588.2h-.536Z" transform="translate(-579.028 -520.653)" fill="#fff"/>
  <path id="Path_274" data-name="Path 274" d="M615.329,584.948v.727h-1.759v1.8h2.371v.727H612.8v-5.355h3.06v.727h-2.295v1.377Z" transform="translate(-590.597 -520.653)" fill="#fff"/>
  <g id="Group_56" data-name="Group 56">
    <g id="Group_55" data-name="Group 55" clip-path="url(#clip-path)">
      <path id="Path_280" data-name="Path 280" d="M681.379,595.192h-.154l.122,0a2.343,2.343,0,0,0,.315-.021,2.261,2.261,0,0,1-.283.018" transform="translate(-645.75 -528.116)" fill="#fff"/>
      <line id="Line_2" data-name="Line 2" y1="0.714" transform="translate(39.532 68.324)" fill="#fff"/>
    </g>
  </g>
  <g id="Group_58" data-name="Group 58" transform="translate(0.678 27.242)">
    <g id="Group_57" data-name="Group 57" clip-path="url(#clip-path-2)">
      <path id="Path_283" data-name="Path 283" d="M610.858,512.631v2.727l.661.66h.313v-4.047h-.313Z" transform="translate(-603.833 -504.992)" fill="#fff"/>
      <rect id="Rectangle_76" data-name="Rectangle 76" width="1.877" height="4.047" transform="translate(8.123 23.962)" fill="#fff"/>
      <path id="Path_284" data-name="Path 284" d="M610.858,523.389v2.726l.661.661h.313v-4.048h-.313Z" transform="translate(-603.833 -511.504)" fill="#fff"/>
      <path id="Path_285" data-name="Path 285" d="M607.961,544.246v4.047h.288l.66-.66v-2.727l-.66-.66Z" transform="translate(-602.079 -524.53)" fill="#fff"/>
      <path id="Path_286" data-name="Path 286" d="M610.858,491.114v2.727l.661.66h.313v-4.047h-.313Z" transform="translate(-603.833 -491.968)" fill="#fff"/>
      <rect id="Rectangle_77" data-name="Rectangle 77" width="1.877" height="4.047" transform="translate(8.123 11.224)" fill="#fff"/>
      <rect id="Rectangle_78" data-name="Rectangle 78" width="1.877" height="4.047" transform="translate(8.123 19.716)" fill="#fff"/>
      <rect id="Rectangle_79" data-name="Rectangle 79" width="1.877" height="4.047" transform="translate(8.123 6.978)" fill="#fff"/>
      <rect id="Rectangle_80" data-name="Rectangle 80" width="1.877" height="4.047" transform="translate(8.123 15.47)" fill="#fff"/>
      <path id="Path_287" data-name="Path 287" d="M607.961,533.487v4.047h.288l.66-.66v-2.727l-.66-.66Z" transform="translate(-602.079 -518.017)" fill="#fff"/>
      <path id="Path_288" data-name="Path 288" d="M610.858,534.147v2.726l.661.661h.313v-4.047h-.313Z" transform="translate(-603.833 -518.017)" fill="#fff"/>
      <path id="Path_289" data-name="Path 289" d="M607.961,511.97v4.047h.288l.66-.66V512.63l-.66-.66Z" transform="translate(-602.079 -504.992)" fill="#fff"/>
      <rect id="Rectangle_81" data-name="Rectangle 81" width="1.877" height="4.047" transform="translate(8.123 2.732)" fill="#fff"/>
      <path id="Path_290" data-name="Path 290" d="M607.961,501.212v4.047h.288l.66-.66v-2.727l-.66-.66Z" transform="translate(-602.079 -498.48)" fill="#fff"/>
      <path id="Path_291" data-name="Path 291" d="M607.961,522.729v4.047h.288l.66-.66v-2.726l-.66-.661Z" transform="translate(-602.079 -511.504)" fill="#fff"/>
      <path id="Path_292" data-name="Path 292" d="M607.961,490.454V494.5h.288l.66-.66v-2.727l-.66-.66Z" transform="translate(-602.079 -491.967)" fill="#fff"/>
      <path id="Path_293" data-name="Path 293" d="M610.858,544.906v2.727l.661.66h.313v-4.047h-.313Z" transform="translate(-603.833 -524.53)" fill="#fff"/>
      <path id="Path_294" data-name="Path 294" d="M610.858,555.664v2.727l.661.66h.313V555h-.313Z" transform="translate(-603.833 -531.042)" fill="#fff"/>
      <path id="Path_295" data-name="Path 295" d="M610.858,501.872V504.6l.661.66h.313v-4.047h-.313Z" transform="translate(-603.833 -498.48)" fill="#fff"/>
      <path id="Path_296" data-name="Path 296" d="M621.607,501.872V504.6l.66.66h.313v-4.047h-.313Z" transform="translate(-610.34 -498.48)" fill="#fff"/>
      <path id="Path_297" data-name="Path 297" d="M621.607,491.114v2.727l.66.66h.313v-4.047h-.313Z" transform="translate(-610.34 -491.968)" fill="#fff"/>
      <path id="Path_298" data-name="Path 298" d="M621.607,523.389v2.726l.66.661h.313v-4.048h-.313Z" transform="translate(-610.34 -511.504)" fill="#fff"/>
      <path id="Path_299" data-name="Path 299" d="M621.607,534.147v2.726l.66.661h.313v-4.047h-.313Z" transform="translate(-610.34 -518.017)" fill="#fff"/>
      <rect id="Rectangle_82" data-name="Rectangle 82" width="1.877" height="4.047" transform="translate(12.365 19.716)" fill="#fff"/>
      <rect id="Rectangle_83" data-name="Rectangle 83" width="1.877" height="4.047" transform="translate(12.365 23.962)" fill="#fff"/>
      <rect id="Rectangle_84" data-name="Rectangle 84" width="1.877" height="4.047" transform="translate(12.365 15.47)" fill="#fff"/>
      <path id="Path_300" data-name="Path 300" d="M621.607,544.906v2.727l.66.66h.313v-4.047h-.313Z" transform="translate(-610.34 -524.53)" fill="#fff"/>
      <path id="Path_301" data-name="Path 301" d="M618.71,490.454V494.5H619l.661-.66v-2.727l-.661-.66Z" transform="translate(-608.586 -491.967)" fill="#fff"/>
      <path id="Path_302" data-name="Path 302" d="M618.71,533.487v4.047H619l.661-.66v-2.727l-.661-.66Z" transform="translate(-608.586 -518.017)" fill="#fff"/>
      <path id="Path_303" data-name="Path 303" d="M618.71,544.246v4.047H619l.661-.66v-2.727l-.661-.66Z" transform="translate(-608.586 -524.53)" fill="#fff"/>
      <path id="Path_304" data-name="Path 304" d="M618.71,555v4.047H619l.661-.66v-2.727L619,555Z" transform="translate(-608.586 -531.042)" fill="#fff"/>
      <path id="Path_305" data-name="Path 305" d="M618.71,522.729v4.047H619l.661-.66v-2.726l-.661-.661Z" transform="translate(-608.586 -511.504)" fill="#fff"/>
      <path id="Path_306" data-name="Path 306" d="M621.607,555.664v2.727l.66.66h.313V555h-.313Z" transform="translate(-610.34 -531.042)" fill="#fff"/>
      <path id="Path_307" data-name="Path 307" d="M618.71,511.97v4.047H619l.661-.66V512.63l-.661-.66Z" transform="translate(-608.586 -504.992)" fill="#fff"/>
      <rect id="Rectangle_85" data-name="Rectangle 85" width="1.877" height="4.047" transform="translate(8.123 -1.514)" fill="#fff"/>
      <path id="Path_308" data-name="Path 308" d="M618.71,501.212v4.047H619l.661-.66v-2.727l-.661-.66Z" transform="translate(-608.586 -498.48)" fill="#fff"/>
      <rect id="Rectangle_86" data-name="Rectangle 86" width="1.877" height="4.047" transform="translate(12.365 11.224)" fill="#fff"/>
      <rect id="Rectangle_87" data-name="Rectangle 87" width="1.877" height="4.047" transform="translate(-0.361 6.978)" fill="#fff"/>
      <rect id="Rectangle_88" data-name="Rectangle 88" width="1.877" height="4.047" transform="translate(-0.361 11.224)" fill="#fff"/>
      <path id="Path_309" data-name="Path 309" d="M607.961,555v4.047h.288l.66-.66v-2.727l-.66-.66Z" transform="translate(-602.079 -531.042)" fill="#fff"/>
      <rect id="Rectangle_89" data-name="Rectangle 89" width="1.877" height="4.047" transform="translate(-0.361 15.47)" fill="#fff"/>
      <rect id="Rectangle_90" data-name="Rectangle 90" width="1.877" height="4.047" transform="translate(-0.361 -1.514)" fill="#fff"/>
      <path id="Path_310" data-name="Path 310" d="M597.214,544.246v4.047h.288l.66-.66v-2.727l-.66-.66Z" transform="translate(-595.574 -524.53)" fill="#fff"/>
      <path id="Path_311" data-name="Path 311" d="M597.214,533.487v4.047h.288l.66-.66v-2.727l-.66-.66Z" transform="translate(-595.574 -518.017)" fill="#fff"/>
      <path id="Path_312" data-name="Path 312" d="M597.214,555v4.047h.288l.66-.66v-2.727l-.66-.66Z" transform="translate(-595.574 -531.042)" fill="#fff"/>
      <rect id="Rectangle_91" data-name="Rectangle 91" width="1.877" height="4.047" transform="translate(-0.361 19.716)" fill="#fff"/>
      <rect id="Rectangle_92" data-name="Rectangle 92" width="1.877" height="4.047" transform="translate(-0.361 23.962)" fill="#fff"/>
      <path id="Path_313" data-name="Path 313" d="M589.362,534.147v2.726l.661.661h.313v-4.047h-.313Z" transform="translate(-590.821 -518.017)" fill="#fff"/>
      <path id="Path_314" data-name="Path 314" d="M589.362,544.906v2.727l.661.66h.313v-4.047h-.313Z" transform="translate(-590.821 -524.53)" fill="#fff"/>
      <path id="Path_315" data-name="Path 315" d="M589.362,555.664v2.727l.661.66h.313V555h-.313Z" transform="translate(-590.821 -531.042)" fill="#fff"/>
      <path id="Path_316" data-name="Path 316" d="M589.362,523.389v2.726l.661.661h.313v-4.048h-.313Z" transform="translate(-590.821 -511.504)" fill="#fff"/>
      <path id="Path_317" data-name="Path 317" d="M589.362,512.631v2.727l.661.66h.313v-4.047h-.313Z" transform="translate(-590.821 -504.992)" fill="#fff"/>
      <path id="Path_318" data-name="Path 318" d="M589.362,491.114v2.727l.661.66h.313v-4.047h-.313Z" transform="translate(-590.821 -491.968)" fill="#fff"/>
      <path id="Path_319" data-name="Path 319" d="M597.214,522.729v4.047h.288l.66-.66v-2.726l-.66-.661Z" transform="translate(-595.574 -511.504)" fill="#fff"/>
      <path id="Path_320" data-name="Path 320" d="M589.362,501.872V504.6l.661.66h.313v-4.047h-.313Z" transform="translate(-590.821 -498.48)" fill="#fff"/>
      <rect id="Rectangle_93" data-name="Rectangle 93" width="1.877" height="4.047" transform="translate(-0.361 2.732)" fill="#fff"/>
      <rect id="Rectangle_94" data-name="Rectangle 94" width="1.877" height="4.047" transform="translate(3.881 11.224)" fill="#fff"/>
      <rect id="Rectangle_95" data-name="Rectangle 95" width="1.877" height="4.047" transform="translate(3.881 15.47)" fill="#fff"/>
      <rect id="Rectangle_96" data-name="Rectangle 96" width="1.877" height="4.047" transform="translate(3.881 19.716)" fill="#fff"/>
      <rect id="Rectangle_97" data-name="Rectangle 97" width="1.877" height="4.047" transform="translate(3.881 23.962)" fill="#fff"/>
      <rect id="Rectangle_98" data-name="Rectangle 98" width="1.877" height="4.047" transform="translate(3.881 -1.514)" fill="#fff"/>
      <path id="Path_321" data-name="Path 321" d="M600.109,491.114v2.727l.66.66h.313v-4.047h-.313Z" transform="translate(-597.326 -491.968)" fill="#fff"/>
      <path id="Path_322" data-name="Path 322" d="M597.214,511.97v4.047h.288l.66-.66V512.63l-.66-.66Z" transform="translate(-595.574 -504.992)" fill="#fff"/>
      <rect id="Rectangle_99" data-name="Rectangle 99" width="1.877" height="4.047" transform="translate(3.881 6.978)" fill="#fff"/>
      <rect id="Rectangle_100" data-name="Rectangle 100" width="1.877" height="4.047" transform="translate(3.881 2.732)" fill="#fff"/>
      <path id="Path_323" data-name="Path 323" d="M597.214,490.454V494.5h.288l.66-.66v-2.727l-.66-.66Z" transform="translate(-595.574 -491.967)" fill="#fff"/>
      <path id="Path_324" data-name="Path 324" d="M600.109,544.906v2.727l.66.66h.313v-4.047h-.313Z" transform="translate(-597.326 -524.53)" fill="#fff"/>
      <path id="Path_325" data-name="Path 325" d="M600.109,555.664v2.727l.66.66h.313V555h-.313Z" transform="translate(-597.326 -531.042)" fill="#fff"/>
      <path id="Path_326" data-name="Path 326" d="M600.109,501.872V504.6l.66.66h.313v-4.047h-.313Z" transform="translate(-597.326 -498.48)" fill="#fff"/>
      <path id="Path_327" data-name="Path 327" d="M597.214,501.212v4.047h.288l.66-.66v-2.727l-.66-.66Z" transform="translate(-595.574 -498.48)" fill="#fff"/>
      <path id="Path_328" data-name="Path 328" d="M600.109,512.631v2.727l.66.66h.313v-4.047h-.313Z" transform="translate(-597.326 -504.992)" fill="#fff"/>
      <path id="Path_329" data-name="Path 329" d="M600.109,534.147v2.726l.66.661h.313v-4.047h-.313Z" transform="translate(-597.326 -518.017)" fill="#fff"/>
      <path id="Path_330" data-name="Path 330" d="M600.109,523.389v2.726l.66.661h.313v-4.048h-.313Z" transform="translate(-597.326 -511.504)" fill="#fff"/>
      <path id="Path_331" data-name="Path 331" d="M621.607,512.631v2.727l.66.66h.313v-4.047h-.313Z" transform="translate(-610.34 -504.992)" fill="#fff"/>
      <path id="Path_332" data-name="Path 332" d="M650.958,522.729v4.047h.288l.66-.66v-2.726l-.66-.661Z" transform="translate(-628.107 -511.504)" fill="#fff"/>
      <path id="Path_333" data-name="Path 333" d="M650.958,511.97v4.047h.288l.66-.66V512.63l-.66-.66Z" transform="translate(-628.107 -504.992)" fill="#fff"/>
      <path id="Path_334" data-name="Path 334" d="M650.958,544.246v4.047h.288l.66-.66v-2.727l-.66-.66Z" transform="translate(-628.107 -524.53)" fill="#fff"/>
      <path id="Path_335" data-name="Path 335" d="M650.958,501.212v4.047h.288l.66-.66v-2.727l-.66-.66Z" transform="translate(-628.107 -498.48)" fill="#fff"/>
      <path id="Path_336" data-name="Path 336" d="M653.855,523.389v2.726l.66.661h.313v-4.048h-.313Z" transform="translate(-629.861 -511.504)" fill="#fff"/>
      <path id="Path_337" data-name="Path 337" d="M653.855,534.147v2.726l.66.661h.313v-4.047h-.313Z" transform="translate(-629.861 -518.017)" fill="#fff"/>
      <path id="Path_338" data-name="Path 338" d="M650.958,490.454V494.5h.288l.66-.66v-2.727l-.66-.66Z" transform="translate(-628.107 -491.967)" fill="#fff"/>
      <path id="Path_339" data-name="Path 339" d="M653.855,544.906v2.727l.66.66h.313v-4.047h-.313Z" transform="translate(-629.861 -524.53)" fill="#fff"/>
      <path id="Path_340" data-name="Path 340" d="M653.855,555.664v2.727l.66.66h.313V555h-.313Z" transform="translate(-629.861 -531.042)" fill="#fff"/>
      <path id="Path_341" data-name="Path 341" d="M650.958,533.487v4.047h.288l.66-.66v-2.727l-.66-.66Z" transform="translate(-628.107 -518.017)" fill="#fff"/>
      <rect id="Rectangle_101" data-name="Rectangle 101" width="1.877" height="4.047" transform="translate(20.85 11.224)" fill="#fff"/>
      <path id="Path_342" data-name="Path 342" d="M650.958,555v4.047h.288l.66-.66v-2.727l-.66-.66Z" transform="translate(-628.107 -531.042)" fill="#fff"/>
      <rect id="Rectangle_102" data-name="Rectangle 102" width="1.877" height="4.047" transform="translate(20.85 19.716)" fill="#fff"/>
      <rect id="Rectangle_103" data-name="Rectangle 103" width="1.877" height="4.047" transform="translate(20.85 23.962)" fill="#fff"/>
      <rect id="Rectangle_104" data-name="Rectangle 104" width="1.877" height="4.047" transform="translate(20.85 15.47)" fill="#fff"/>
      <rect id="Rectangle_105" data-name="Rectangle 105" width="1.877" height="4.047" transform="translate(20.85 6.978)" fill="#fff"/>
      <path id="Path_343" data-name="Path 343" d="M643.106,491.114v2.727l.66.66h.313v-4.047h-.313Z" transform="translate(-623.354 -491.968)" fill="#fff"/>
      <rect id="Rectangle_106" data-name="Rectangle 106" width="1.877" height="4.047" transform="translate(20.85 2.732)" fill="#fff"/>
      <rect id="Rectangle_107" data-name="Rectangle 107" width="1.877" height="4.047" transform="translate(20.85 -1.514)" fill="#fff"/>
      <path id="Path_344" data-name="Path 344" d="M661.706,533.487v4.047h.288l.66-.66v-2.727l-.66-.66Z" transform="translate(-634.613 -518.017)" fill="#fff"/>
      <path id="Path_345" data-name="Path 345" d="M661.706,544.246v4.047h.288l.66-.66v-2.727l-.66-.66Z" transform="translate(-634.613 -524.53)" fill="#fff"/>
      <path id="Path_346" data-name="Path 346" d="M661.706,522.729v4.047h.288l.66-.66v-2.726l-.66-.661Z" transform="translate(-634.613 -511.504)" fill="#fff"/>
      <rect id="Rectangle_108" data-name="Rectangle 108" width="1.877" height="4.047" transform="translate(25.092 -1.514)" fill="#fff"/>
      <path id="Path_347" data-name="Path 347" d="M661.706,555v4.047h.288l.66-.66v-2.727l-.66-.66Z" transform="translate(-634.613 -531.042)" fill="#fff"/>
      <path id="Path_348" data-name="Path 348" d="M661.995,490.454h-.288V494.5h.288l.66-.66v-2.727Z" transform="translate(-634.613 -491.967)" fill="#fff"/>
      <path id="Path_349" data-name="Path 349" d="M661.706,511.97v4.047h.288l.66-.66V512.63l-.66-.66Z" transform="translate(-634.613 -504.992)" fill="#fff"/>
      <path id="Path_350" data-name="Path 350" d="M661.706,501.212v4.047h.288l.66-.66v-2.727l-.66-.66Z" transform="translate(-634.613 -498.48)" fill="#fff"/>
      <rect id="Rectangle_109" data-name="Rectangle 109" width="1.877" height="4.047" transform="translate(25.092 19.716)" fill="#fff"/>
      <path id="Path_351" data-name="Path 351" d="M653.855,512.631v2.727l.66.66h.313v-4.047h-.313Z" transform="translate(-629.861 -504.992)" fill="#fff"/>
      <rect id="Rectangle_110" data-name="Rectangle 110" width="1.877" height="4.047" transform="translate(25.092 2.732)" fill="#fff"/>
      <path id="Path_352" data-name="Path 352" d="M653.855,491.114v2.727l.66.66h.313v-4.047h-.313Z" transform="translate(-629.861 -491.968)" fill="#fff"/>
      <path id="Path_353" data-name="Path 353" d="M653.855,501.872V504.6l.66.66h.313v-4.047h-.313Z" transform="translate(-629.861 -498.48)" fill="#fff"/>
      <rect id="Rectangle_111" data-name="Rectangle 111" width="1.877" height="4.047" transform="translate(25.092 23.962)" fill="#fff"/>
      <rect id="Rectangle_112" data-name="Rectangle 112" width="1.877" height="4.047" transform="translate(25.092 15.47)" fill="#fff"/>
      <rect id="Rectangle_113" data-name="Rectangle 113" width="1.877" height="4.047" transform="translate(25.092 6.978)" fill="#fff"/>
      <rect id="Rectangle_114" data-name="Rectangle 114" width="1.877" height="4.047" transform="translate(25.092 11.224)" fill="#fff"/>
      <path id="Path_354" data-name="Path 354" d="M643.106,544.906v2.727l.66.66h.313v-4.047h-.313Z" transform="translate(-623.354 -524.53)" fill="#fff"/>
      <path id="Path_355" data-name="Path 355" d="M632.357,544.906v2.727l.66.66h.313v-4.047h-.313Z" transform="translate(-616.847 -524.53)" fill="#fff"/>
      <path id="Path_356" data-name="Path 356" d="M632.357,523.389v2.726l.66.661h.313v-4.048h-.313Z" transform="translate(-616.847 -511.504)" fill="#fff"/>
      <rect id="Rectangle_115" data-name="Rectangle 115" width="1.877" height="4.047" transform="translate(16.608 19.716)" fill="#fff"/>
      <path id="Path_357" data-name="Path 357" d="M632.357,555.664v2.727l.66.66h.313V555h-.313Z" transform="translate(-616.847 -531.042)" fill="#fff"/>
      <path id="Path_358" data-name="Path 358" d="M632.357,501.872V504.6l.66.66h.313v-4.047h-.313Z" transform="translate(-616.847 -498.48)" fill="#fff"/>
      <path id="Path_359" data-name="Path 359" d="M632.357,491.114v2.727l.66.66h.313v-4.047h-.313Z" transform="translate(-616.847 -491.968)" fill="#fff"/>
      <rect id="Rectangle_116" data-name="Rectangle 116" width="1.877" height="4.047" transform="translate(16.608 23.962)" fill="#fff"/>
      <path id="Path_360" data-name="Path 360" d="M632.357,512.631v2.727l.66.66h.313v-4.047h-.313Z" transform="translate(-616.847 -504.992)" fill="#fff"/>
      <path id="Path_361" data-name="Path 361" d="M629.46,490.454V494.5h.288l.66-.66v-2.727l-.66-.66Z" transform="translate(-615.093 -491.967)" fill="#fff"/>
      <path id="Path_362" data-name="Path 362" d="M632.357,534.147v2.726l.66.661h.313v-4.047h-.313Z" transform="translate(-616.847 -518.017)" fill="#fff"/>
      <path id="Path_363" data-name="Path 363" d="M629.46,555v4.047h.288l.66-.66v-2.727l-.66-.66Z" transform="translate(-615.093 -531.042)" fill="#fff"/>
      <rect id="Rectangle_117" data-name="Rectangle 117" width="1.877" height="4.047" transform="translate(12.365 -1.514)" fill="#fff"/>
      <path id="Path_364" data-name="Path 364" d="M629.46,501.212v4.047h.288l.66-.66v-2.727l-.66-.66Z" transform="translate(-615.093 -498.48)" fill="#fff"/>
      <path id="Path_365" data-name="Path 365" d="M629.46,544.246v4.047h.288l.66-.66v-2.727l-.66-.66Z" transform="translate(-615.093 -524.53)" fill="#fff"/>
      <rect id="Rectangle_118" data-name="Rectangle 118" width="1.877" height="4.047" transform="translate(12.365 2.732)" fill="#fff"/>
      <path id="Path_366" data-name="Path 366" d="M629.46,511.97v4.047h.288l.66-.66V512.63l-.66-.66Z" transform="translate(-615.093 -504.992)" fill="#fff"/>
      <path id="Path_367" data-name="Path 367" d="M629.46,533.487v4.047h.288l.66-.66v-2.727l-.66-.66Z" transform="translate(-615.093 -518.017)" fill="#fff"/>
      <path id="Path_368" data-name="Path 368" d="M629.46,522.729v4.047h.288l.66-.66v-2.726l-.66-.661Z" transform="translate(-615.093 -511.504)" fill="#fff"/>
      <rect id="Rectangle_119" data-name="Rectangle 119" width="1.877" height="4.047" transform="translate(16.608 6.978)" fill="#fff"/>
      <path id="Path_369" data-name="Path 369" d="M643.106,555.664v2.727l.66.66h.313V555h-.313Z" transform="translate(-623.354 -531.042)" fill="#fff"/>
      <rect id="Rectangle_120" data-name="Rectangle 120" width="1.877" height="4.047" transform="translate(16.608 15.47)" fill="#fff"/>
      <path id="Path_370" data-name="Path 370" d="M640.208,501.212v4.047h.288l.66-.66v-2.727l-.66-.66Z" transform="translate(-621.6 -498.48)" fill="#fff"/>
      <rect id="Rectangle_121" data-name="Rectangle 121" width="1.877" height="4.047" transform="translate(12.365 6.978)" fill="#fff"/>
      <path id="Path_371" data-name="Path 371" d="M643.106,523.389v2.726l.66.661h.313v-4.048h-.313Z" transform="translate(-623.354 -511.504)" fill="#fff"/>
      <path id="Path_372" data-name="Path 372" d="M643.106,512.631v2.727l.66.66h.313v-4.047h-.313Z" transform="translate(-623.354 -504.992)" fill="#fff"/>
      <path id="Path_373" data-name="Path 373" d="M640.208,511.97v4.047h.288l.66-.66V512.63l-.66-.66Z" transform="translate(-621.6 -504.992)" fill="#fff"/>
      <path id="Path_374" data-name="Path 374" d="M643.106,534.147v2.726l.66.661h.313v-4.047h-.313Z" transform="translate(-623.354 -518.017)" fill="#fff"/>
      <path id="Path_375" data-name="Path 375" d="M640.208,490.454V494.5h.288l.66-.66v-2.727l-.66-.66Z" transform="translate(-621.6 -491.967)" fill="#fff"/>
      <path id="Path_376" data-name="Path 376" d="M643.106,501.872V504.6l.66.66h.313v-4.047h-.313Z" transform="translate(-623.354 -498.48)" fill="#fff"/>
      <rect id="Rectangle_122" data-name="Rectangle 122" width="1.877" height="4.047" transform="translate(16.608 2.732)" fill="#fff"/>
      <rect id="Rectangle_123" data-name="Rectangle 123" width="1.877" height="4.047" transform="translate(16.608 -1.514)" fill="#fff"/>
      <rect id="Rectangle_124" data-name="Rectangle 124" width="1.877" height="4.047" transform="translate(16.608 11.224)" fill="#fff"/>
      <path id="Path_377" data-name="Path 377" d="M640.208,522.729v4.047h.288l.66-.66v-2.726l-.66-.661Z" transform="translate(-621.6 -511.504)" fill="#fff"/>
      <path id="Path_378" data-name="Path 378" d="M640.208,533.487v4.047h.288l.66-.66v-2.727l-.66-.66Z" transform="translate(-621.6 -518.017)" fill="#fff"/>
      <path id="Path_379" data-name="Path 379" d="M640.208,555v4.047h.288l.66-.66v-2.727l-.66-.66Z" transform="translate(-621.6 -531.042)" fill="#fff"/>
      <path id="Path_380" data-name="Path 380" d="M640.208,544.246v4.047h.288l.66-.66v-2.727l-.66-.66Z" transform="translate(-621.6 -524.53)" fill="#fff"/>
    </g>
  </g>
  <g id="Group_60" data-name="Group 60" transform="translate(20.687 28.528)">
    <g id="Group_59" data-name="Group 59" transform="translate(0)" clip-path="url(#clip-path-3)">
      <path id="Path_382" data-name="Path 382" d="M665.944,537.685c.092-.429.9-4.209.893-4.726a3.858,3.858,0,0,0-.878-1.737.185.185,0,0,0-.265.013.192.192,0,0,0,.013.268,3.726,3.726,0,0,1,.755,1.443v.017c0,.358-.525,2.964-.883,4.633a25.119,25.119,0,0,0-.781,3.586h.379a26.042,26.042,0,0,1,.764-3.484Z" transform="translate(-656.493 -517.902)" fill="#fff"/>
      <path id="Path_383" data-name="Path 383" d="M657.605,536a19.129,19.129,0,0,0,.628-3.624c-.057-.9-.17-1.891-.79-2.219a5.488,5.488,0,0,0-2.175-.219l-.17,0a6.144,6.144,0,0,0-2.5,1.082c-.089.081-.209.183-.347.3a8.422,8.422,0,0,0-2.047,2.214,4.939,4.939,0,0,1-.63.987c-.051.251-.1.495-.141.735a6.013,6.013,0,0,0,1.111-1.559,8.356,8.356,0,0,1,1.95-2.086c.141-.121.262-.224.356-.309a6,6,0,0,1,2.258-.985l.174,0a5.553,5.553,0,0,1,1.99.176c.484.256.555,1.37.588,1.906v.019a20.262,20.262,0,0,1-.62,3.494c-.073.316-.135.59-.18.8-.162.761-.38,2.438-.508,3.715h.377c.126-1.258.339-2.891.5-3.635.045-.208.107-.48.179-.795" transform="translate(-647.192 -517.148)" fill="#fff"/>
      <path id="Path_384" data-name="Path 384" d="M652.047,531.178c1.061-.645,2.3-1.444,2.315-1.452a.192.192,0,0,0,.058-.263.186.186,0,0,0-.259-.059c-.012.008-1.25.805-2.307,1.447a4.991,4.991,0,0,0-1.214,1.246c-.1.352-.183.7-.263,1.039a7.054,7.054,0,0,1,1.67-1.958" transform="translate(-647.764 -516.814)" fill="#fff"/>
      <path id="Path_385" data-name="Path 385" d="M655.059,528.273a24.536,24.536,0,0,1,2.832-.2c.012,0,1.645.024,1.859.922a12.486,12.486,0,0,1,.3,3.535c-.129.615-1.052,3.832-1.061,3.865a.191.191,0,0,0,.128.236.187.187,0,0,0,.233-.129c.038-.133.936-3.263,1.068-3.891a12.808,12.808,0,0,0-.3-3.7c-.283-1.186-2.146-1.212-2.226-1.212A24.092,24.092,0,0,0,655,527.9a10.324,10.324,0,0,0-2.792,1.32c-.075.206-.147.411-.214.615l.063-.069a12,12,0,0,1,3.005-1.49" transform="translate(-648.741 -515.793)" fill="#fff"/>
      <path id="Path_386" data-name="Path 386" d="M661.745,530.757c-.006-.183-.009-.382-.012-.59-.022-1.348-.049-3.026-.68-3.685a3.618,3.618,0,0,0-2.939-1.009,21.788,21.788,0,0,0-3.38.616,11.194,11.194,0,0,0-1.472.7q-.118.278-.227.556a13.931,13.931,0,0,1,1.8-.89,21.2,21.2,0,0,1,3.3-.6,3.211,3.211,0,0,1,2.643.894c.528.552.555,2.214.575,3.427,0,.21.007.411.012.6a13.919,13.919,0,0,1-1.256,4.758,11.477,11.477,0,0,0-.632,2.2h.383a11.111,11.111,0,0,1,.6-2.059,14.241,14.241,0,0,0,1.284-4.912" transform="translate(-649.373 -514.443)" fill="#fff"/>
      <path id="Path_387" data-name="Path 387" d="M662.68,532.911a19.419,19.419,0,0,1,.436-2.317c.356-1.156-.074-3.835-.214-4.629A2.5,2.5,0,0,0,661.1,524a12.784,12.784,0,0,0-3.542.064,21.923,21.923,0,0,0-3.181.8q-.112.237-.219.473a24.833,24.833,0,0,1,3.441-.9,12.778,12.778,0,0,1,3.374-.084,2.127,2.127,0,0,1,1.559,1.676,12.958,12.958,0,0,1,.226,4.449,19.446,19.446,0,0,0-.449,2.372c-.112.734-.218,1.428-.327,1.813-.116.406-.339,1.262-.561,2.111h.388c.213-.815.424-1.62.534-2.005a18.6,18.6,0,0,0,.338-1.861" transform="translate(-650.053 -513.491)" fill="#fff"/>
      <path id="Path_388" data-name="Path 388" d="M671.976,549.7a.192.192,0,0,0-.13-.235.188.188,0,0,0-.231.132c0,.005-.138.5-.3.911-.086.219-.295,1.056-.453,1.745h.386c.146-.637.33-1.384.417-1.605.169-.432.306-.928.312-.949" transform="translate(-660.164 -528.973)" fill="#fff"/>
      <path id="Path_389" data-name="Path 389" d="M665.019,529.828l0-.024a31.234,31.234,0,0,0,.106-4.756c-.207-.875-.614-2.592-1.316-3.077a8.5,8.5,0,0,0-3.049-1.1,17.35,17.35,0,0,0-2.234.292c-.349.053-.65.1-.749.1-.146.007-.689.069-1.3.146-.075.136-.148.273-.22.41.716-.09,1.391-.168,1.542-.176.118-.006.4-.049.787-.107a17.934,17.934,0,0,1,2.161-.288,8.258,8.258,0,0,1,2.855,1.033c.582.4.981,2.084,1.162,2.851a28.431,28.431,0,0,1-.114,4.622c-.045.208-.637,2.939-.756,3.482-.062.284-.246.993-.446,1.712h.39c.2-.708.369-1.382.423-1.632.123-.565.758-3.494.758-3.494" transform="translate(-651.323 -511.666)" fill="#fff"/>
      <path id="Path_390" data-name="Path 390" d="M657.412,523.149c.419-.1,1.447-.2,2-.263l.214-.023a8.837,8.837,0,0,1,1.189.016.19.19,0,0,0,.029-.379,8.9,8.9,0,0,0-1.258-.015l-.213.022c-.56.06-1.6.169-2.043.27-.275.063-1.076.191-1.784.3-.072.14-.142.279-.211.419l.263-.042c.751-.12,1.527-.244,1.814-.311" transform="translate(-650.765 -512.631)" fill="#fff"/>
      <path id="Path_391" data-name="Path 391" d="M663.391,520.113a.188.188,0,0,0,.223-.146.19.19,0,0,0-.144-.226,19.625,19.625,0,0,0-2.84-.307,26.11,26.11,0,0,1-2.812.173c-.077.128-.154.256-.228.384,1.246-.021,2.668-.123,3.089-.18a14.613,14.613,0,0,1,2.712.3" transform="translate(-652.13 -510.791)" fill="#fff"/>
      <path id="Path_392" data-name="Path 392" d="M661.211,518.25a11.354,11.354,0,0,1,3.153.469,5.577,5.577,0,0,1,1.64,1.806,9.06,9.06,0,0,1,.92,2.47c.037.217.022,1.724,0,2.683a.188.188,0,1,0,.375.008c.005-.248.045-2.431-.009-2.755a9.383,9.383,0,0,0-.98-2.62,5.68,5.68,0,0,0-1.8-1.94,11.61,11.61,0,0,0-3.311-.5c-.292.006-.839.008-1.42.011l-.765,0q-.122.191-.241.382l1.007-.005c.582,0,1.131-.005,1.426-.011" transform="translate(-652.849 -509.848)" fill="#fff"/>
      <path id="Path_393" data-name="Path 393" d="M670.418,527.165a33.284,33.284,0,0,0,.9-5.151,8.533,8.533,0,0,0-1.85-4.8c-.931-1.126-2.212-2.52-3.026-2.76a22.873,22.873,0,0,0-4.491-.847c-.07.092-.141.184-.209.277l-.076.106.165,0a21.35,21.35,0,0,1,4.506.832,9.108,9.108,0,0,1,2.844,2.64,8.231,8.231,0,0,1,1.761,4.55,32.954,32.954,0,0,1-.887,5.066l-.011.043c-.1.417-.286,1.152-.444,1.967a10.1,10.1,0,0,0,.653-1.241c.059-.252.114-.468.155-.633Z" transform="translate(-654.596 -507.267)" fill="#fff"/>
      <path id="Path_394" data-name="Path 394" d="M672.854,518.828a12.629,12.629,0,0,0-4.245-6.007,14.966,14.966,0,0,0-4.418-1.428l-.279-.061c-.043-.009-.085-.017-.128-.024q-.14.168-.277.337c.108.017.216.035.325.059l.279.062a15.08,15.08,0,0,1,4.283,1.369,13.77,13.77,0,0,1,2.62,2.8,13.541,13.541,0,0,1,1.478,3,12.947,12.947,0,0,1,.178,3.764c0,.062-.01.137-.018.22.124-.325.265-.664.431-1a10.733,10.733,0,0,0-.231-3.09" transform="translate(-655.713 -505.877)" fill="#fff"/>
      <path id="Path_395" data-name="Path 395" d="M674.458,507.613a18.159,18.159,0,0,0-3.454-2.09c-.328-.119-.832-.283-1.353-.446-.11.1-.217.2-.323.3.588.183,1.182.374,1.55.507a17.966,17.966,0,0,1,3.364,2.043,13.183,13.183,0,0,1,2.93,3.735,19.925,19.925,0,0,1,.78,4.449c0,.038-.006.084-.008.129a4.979,4.979,0,0,1,.383-.335,20.8,20.8,0,0,0-.811-4.394,13.459,13.459,0,0,0-3.059-3.9" transform="translate(-659.236 -502.105)" fill="#fff"/>
      <path id="Path_396" data-name="Path 396" d="M676.65,507.748a.186.186,0,0,0,.266,0,.193.193,0,0,0,0-.269,13.883,13.883,0,0,0-1.793-1.537,28.545,28.545,0,0,0-3.917-2.216l-.117.095c-.074.062-.144.126-.217.188a25.048,25.048,0,0,1,4.038,2.247,13.788,13.788,0,0,1,1.738,1.49" transform="translate(-660.172 -501.289)" fill="#fff"/>
      <path id="Path_397" data-name="Path 397" d="M678.437,505.987a14.51,14.51,0,0,0-4.018-3.291c-.315-.17-.736-.359-1.184-.547-.12.086-.238.174-.356.264.517.214,1.011.429,1.363.618a14.29,14.29,0,0,1,3.889,3.177,25.727,25.727,0,0,1,2.227,5.114c.1.357.333,1.367.527,2.522.111-.069.228-.133.347-.192-.192-1.12-.418-2.082-.512-2.431a25.748,25.748,0,0,0-2.284-5.235" transform="translate(-661.385 -500.333)" fill="#fff"/>
      <path id="Path_398" data-name="Path 398" d="M683.564,509.289c-.246-.55-.478-1.07-.6-1.4l-.051-.144a5.843,5.843,0,0,0-1.926-3.033c-1.113-.735-2.581-1.74-2.6-1.75a.186.186,0,0,0-.26.051.192.192,0,0,0,.051.264c.015.01,1.486,1.016,2.6,1.753a5.546,5.546,0,0,1,1.778,2.842l.051.146c.125.348.36.875.609,1.431a20.809,20.809,0,0,1,.853,2.082c.151.515.408,1.8.586,2.742.115-.05.234-.1.356-.137-.177-.935-.431-2.193-.583-2.713a20.583,20.583,0,0,0-.871-2.131" transform="translate(-664.545 -500.803)" fill="#fff"/>
      <path id="Path_399" data-name="Path 399" d="M682.076,505.713a8.523,8.523,0,0,1-.659-.822,14.4,14.4,0,0,0-1.605-1.9,9.327,9.327,0,0,0-3.8-2.047,5.471,5.471,0,0,1-.732-.215c-.133.083-.265.17-.4.258a6.926,6.926,0,0,0,1.057.331,9.039,9.039,0,0,1,3.617,1.955,14.206,14.206,0,0,1,1.559,1.849,8.276,8.276,0,0,0,.7.87A13.3,13.3,0,0,1,684,510.535a16.474,16.474,0,0,1,.125,2.03c.122-.01.247-.016.375-.019a16.943,16.943,0,0,0-.129-2.07,13.615,13.615,0,0,0-2.3-4.763" transform="translate(-662.6 -499.473)" fill="#fff"/>
      <path id="Path_400" data-name="Path 400" d="M685.519,503.63c-.088-.159-.171-.309-.248-.451a10.878,10.878,0,0,0-2.832-3.234,11.725,11.725,0,0,0-2.63-1.744q-.236.11-.469.229a9.676,9.676,0,0,1,2.862,1.811,10.517,10.517,0,0,1,2.74,3.122c.077.142.161.293.249.453a19.869,19.869,0,0,1,1.993,4.5,16.592,16.592,0,0,1,.371,2.7c.124,0,.25.006.377.011a17,17,0,0,0-.385-2.8,20.2,20.2,0,0,0-2.029-4.59" transform="translate(-665.296 -497.943)" fill="#fff"/>
      <path id="Path_401" data-name="Path 401" d="M680.376,501.508a30.264,30.264,0,0,1,2.164,2.48.186.186,0,0,0,.259.059.192.192,0,0,0,.058-.263,30.074,30.074,0,0,0-2.233-2.562,11.612,11.612,0,0,0-3.019-1.383,3.937,3.937,0,0,1-.529-.183c-.137.077-.273.156-.409.237a5.441,5.441,0,0,0,.85.316,11.58,11.58,0,0,1,2.859,1.3" transform="translate(-663.678 -498.824)" fill="#fff"/>
      <path id="Path_402" data-name="Path 402" d="M686.807,501.9c-.1-.088-.2-.174-.3-.266a29.347,29.347,0,0,1-2.749-2.853,14.918,14.918,0,0,0-2.208-1.276l-.094-.046c-.148.066-.3.133-.442.2.129.067.256.131.377.189a11.525,11.525,0,0,1,4.833,3.922,15.294,15.294,0,0,1,2.606,6.368,22.658,22.658,0,0,1,.3,2.4l.378.019a22.926,22.926,0,0,0-.3-2.488,15.988,15.988,0,0,0-2.4-6.169" transform="translate(-666.311 -497.494)" fill="#fff"/>
      <path id="Path_403" data-name="Path 403" d="M684.447,497.733q-.29-.374-.568-.76l-.528-.3c-.15.058-.3.117-.447.179.419.245.9.519,1.422.815l.121.069" transform="translate(-667.454 -497.016)" fill="#fff"/>
      <path id="Path_404" data-name="Path 404" d="M697.8,510.408c-.244-.185-.487-.38-.729-.581.036.066.115.265.152.332a20.039,20.039,0,0,1,1.692,4.544c.171.7.444,2.21.662,3.351l.387.024c-.222-1.166-.506-2.742-.684-3.467a23.149,23.149,0,0,0-1.478-4.2" transform="translate(-676.028 -504.98)" fill="#fff"/>
      <path id="Path_405" data-name="Path 405" d="M701.377,513.05q-.268-.178-.537-.368a11.592,11.592,0,0,1,.6,2.174c.285,1.64.637,3.621.92,4.956l.389.024c-.286-1.336-.647-3.365-.939-5.045a11.4,11.4,0,0,0-.435-1.74" transform="translate(-678.311 -506.709)" fill="#fff"/>
      <path id="Path_406" data-name="Path 406" d="M703.675,514.609c-.154-.095-.309-.191-.465-.292.3.984.886,4.434,1.089,5.787.024.161.071.519.1.726l.383.02c-.036-.226-.086-.608-.116-.8-.159-1.061-.663-4.069-.995-5.438" transform="translate(-679.746 -507.698)" fill="#fff"/>
      <path id="Path_407" data-name="Path 407" d="M708.551,518.744c-.013-.171-.066-.618-.131-1.113-.135-.073-.27-.148-.408-.225.077.558.148,1.12.165,1.365s.185,1.439.379,2.818c.046.328.127.913.173,1.246q.192,0,.379,0c-.049-.35-.132-.953-.181-1.3-.185-1.315-.359-2.556-.376-2.792" transform="translate(-682.652 -509.569)" fill="#fff"/>
      <path id="Path_408" data-name="Path 408" d="M710.987,521.526a9.674,9.674,0,0,0-.092-2.557l-.422-.225a9.5,9.5,0,0,1,.14,2.735,11.739,11.739,0,0,0,.058,2.138c.128,0,.254-.008.377-.015a11.455,11.455,0,0,1-.063-2.077" transform="translate(-684.142 -510.379)" fill="#fff"/>
      <path id="Path_409" data-name="Path 409" d="M713.1,520.232l-.367-.2c0,.043,0,.087,0,.129a40.166,40.166,0,0,0-.075,4.208c.127-.011.253-.024.373-.042a37.874,37.874,0,0,1,.073-4.1" transform="translate(-685.447 -511.159)" fill="#fff"/>
      <path id="Path_410" data-name="Path 410" d="M715.792,521.667l-.025-.018c-.06-.041-.123-.082-.189-.122-.048-.03-.1-.06-.153-.09.146.919.251,2.242.306,3.416a2.2,2.2,0,0,0,.367-.195c-.05-.99-.141-2.128-.254-2.954l-.052-.037" transform="translate(-687.14 -512.008)" fill="#fff"/>
      <path id="Path_411" data-name="Path 411" d="M717.584,524.047c-.027-.335-.054-.673-.086-1a1.773,1.773,0,0,0-.27-.341h0c-.043-.041-.088-.082-.137-.123h0l-.021-.017c.057.481.1,1,.14,1.516.025.309.05.624.078.929a1.391,1.391,0,0,0,.335-.483c-.013-.159-.026-.319-.039-.477" transform="translate(-688.135 -512.689)" fill="#fff"/>
      <path id="Path_412" data-name="Path 412" d="M655.371,534.3c-.491-.563-.952-.316-1.358-.1l-.1.052a22.155,22.155,0,0,0-2.608,2.471l-.146.151a3.764,3.764,0,0,0-.92,1.8c-.064.309-.227.81-.37,1.253a7.709,7.709,0,0,0-.257.874,13.317,13.317,0,0,1-.91,2.051h.431a12.467,12.467,0,0,0,.851-2c.016-.112.131-.468.242-.809.146-.452.313-.965.38-1.295a3.419,3.419,0,0,1,.82-1.613l.147-.152a27.032,27.032,0,0,1,2.513-2.4l.1-.053c.431-.232.616-.313.9.013.258.3-.006,1.248-.36,2.007a12.375,12.375,0,0,1-1.313,2.112,10.936,10.936,0,0,0-1.5,2.673,3.254,3.254,0,0,0-.011,1.519h.382a3.034,3.034,0,0,1-.017-1.4,10.673,10.673,0,0,1,1.433-2.556,12.6,12.6,0,0,0,1.361-2.189c.253-.542.79-1.863.3-2.423" transform="translate(-646.752 -519.585)" fill="#fff"/>
      <path id="Path_413" data-name="Path 413" d="M654.9,533.106a1.642,1.642,0,0,0-.455-1.245,1.075,1.075,0,0,0-1.458-.213c-.32.194-.974.717-1.607,1.223-.46.368-.895.715-1.094.848-.077.052-1.909,1.284-2.13,2.291-.171.779-.492,2.324-.506,2.458a8.848,8.848,0,0,1-1.344,2.871h.479a8.732,8.732,0,0,0,1.236-2.81l0-.014c0-.017.33-1.647.5-2.423.139-.633,1.282-1.6,1.971-2.056.212-.142.633-.478,1.12-.867.594-.475,1.268-1.013,1.568-1.195.423-.257.646-.16,1.017.172a1.261,1.261,0,0,1,.329.978c.017.346-.213,1.978-.306,2.595-.068.23-1.025,3.486-1.453,4.795a4.7,4.7,0,0,0-.183.834h.38a4.18,4.18,0,0,1,.159-.715c.443-1.357,1.45-4.784,1.46-4.818l.006-.026c.013-.091.334-2.227.312-2.684" transform="translate(-645.301 -518.068)" fill="#fff"/>
      <path id="Path_414" data-name="Path 414" d="M655.013,543.472c.028-.116.056-.247.087-.387a5.87,5.87,0,0,1,.44-1.444,10.207,10.207,0,0,1,1.143-1.877c.1-.131.228-.291.405-.531l.1-.141a7.279,7.279,0,0,0,.886-1.508c.169-.354.312-.741.085-.928-.069-.056-.281-.231-.969.31a14.471,14.471,0,0,0-1.2,1.2,3.667,3.667,0,0,0-.677,1.15l-.106.222a.194.194,0,0,0,.088.257.189.189,0,0,0,.254-.09l.106-.223a3.341,3.341,0,0,1,.62-1.064,14.481,14.481,0,0,1,1.148-1.151,1.715,1.715,0,0,1,.469-.286,1.758,1.758,0,0,1-.159.431,6.9,6.9,0,0,1-.846,1.443l-.107.142c-.174.236-.3.393-.4.522a10.612,10.612,0,0,0-1.179,1.932,6.147,6.147,0,0,0-.478,1.547c-.029.136-.057.264-.084.377a4.481,4.481,0,0,0-.085,1.073h.382a4.184,4.184,0,0,1,.072-.981" transform="translate(-650.295 -521.178)" fill="#fff"/>
      <path id="Path_415" data-name="Path 415" d="M652.329,549.8l.059-.154a8.812,8.812,0,0,0,.536-1.745l.033-.234c.068-.482.127-.9.187-1.458a.19.19,0,1,0-.378-.041c-.06.552-.118.965-.186,1.444l-.033.236a8.5,8.5,0,0,1-.514,1.659l-.06.154c-.061.161-.117.328-.165.486h.4c.037-.116.078-.234.121-.347" transform="translate(-648.631 -526.877)" fill="#fff"/>
      <path id="Path_416" data-name="Path 416" d="M669.332,521.9a2.719,2.719,0,0,1-.07-.338,4.386,4.386,0,0,0-.527-1.453,11.128,11.128,0,0,0-1.347-1.437.094.094,0,0,0-.014-.009,9.69,9.69,0,0,0-.693-1.048,3.915,3.915,0,0,0-2.571-1.336c-.2-.006-.911-.065-1.666-.127s-1.609-.133-2.159-.168c-.084.122-.164.245-.245.367.515.027,1.527.11,2.374.18.793.065,1.478.122,1.686.128a3.535,3.535,0,0,1,2.288,1.193,12.778,12.778,0,0,1,1.683,3.134l.014.121a14.875,14.875,0,0,1,.22,3.468c-.064.231-.311,1.274-.6,2.482-.371,1.57-.832,3.523-.937,3.868-.047.155-.134.551-.239,1.072h.135a1.4,1.4,0,0,0,.255-.025c.092-.458.168-.8.208-.935.108-.356.552-2.234.944-3.89.273-1.154.53-2.244.592-2.468a15.882,15.882,0,0,0-.208-3.615l-.013-.12a5.092,5.092,0,0,0-.459-1.145,3.562,3.562,0,0,1,.422.507,3.984,3.984,0,0,1,.477,1.307,3.069,3.069,0,0,0,.079.383,3.994,3.994,0,0,1,.13,1.154,12.676,12.676,0,0,1-.492,3.535c-.388,1.336-.465,1.645-.468,1.657a.192.192,0,0,0,.138.234.188.188,0,0,0,.23-.14s.081-.32.465-1.642a13.035,13.035,0,0,0,.507-3.643,4.311,4.311,0,0,0-.142-1.251" transform="translate(-653.613 -508.708)" fill="#fff"/>
      <path id="Path_417" data-name="Path 417" d="M679.852,551.473c.045-.919.174-1.8.176-1.812a.192.192,0,0,0-.16-.219.189.189,0,0,0-.217.161,19.8,19.8,0,0,0-.194,2.245,3.152,3.152,0,0,0,.394-.375" transform="translate(-665.368 -528.96)" fill="#fff"/>
      <path id="Path_418" data-name="Path 418" d="M674.541,516.1a17.508,17.508,0,0,0-2.112-3.281l-.082-.079a9.335,9.335,0,0,0-2.787-1.965,16.519,16.519,0,0,0-3.376-.882.188.188,0,0,0-.215.163.192.192,0,0,0,.161.218,16.514,16.514,0,0,1,3.285.856,8.989,8.989,0,0,1,2.67,1.888l.083.08a17.762,17.762,0,0,1,2.026,3.159,20.66,20.66,0,0,1,.725,3.929c.009.071.016.135.024.2q.151-.248.324-.486a18.652,18.652,0,0,0-.726-3.8" transform="translate(-657.201 -505.018)" fill="#fff"/>
      <path id="Path_419" data-name="Path 419" d="M693.446,521.049a14.132,14.132,0,0,0-.514-3.426,12.6,12.6,0,0,0-1.174-2.067,8.791,8.791,0,0,1-.511-.839.189.189,0,0,0-.248-.1.193.193,0,0,0-.1.252,8.074,8.074,0,0,0,.544.9,12.618,12.618,0,0,1,1.134,1.988,13.709,13.709,0,0,1,.492,3.37l.022-.006c.116-.028.235-.05.358-.069" transform="translate(-672.283 -507.869)" fill="#fff"/>
      <path id="Path_420" data-name="Path 420" d="M706.347,519.438c-.1-.7-.133-.933-.264-1.532-.141-.637-.323-1.392-.437-1.862q-.227-.132-.459-.271c.076.305.337,1.367.525,2.218.129.584.162.815.259,1.5.062.433.184,1.274.341,2.294.13.005.259.01.387.013-.163-1.059-.288-1.919-.351-2.361" transform="translate(-680.942 -508.58)" fill="#fff"/>
      <path id="Path_421" data-name="Path 421" d="M675.852,514.772a10.11,10.11,0,0,0-2.7-5.015,19.57,19.57,0,0,0-5.177-3.09c-.15-.034-.336-.081-.542-.139-.1.1-.206.206-.307.309.3.086.562.157.768.2a7.08,7.08,0,0,1,1.539.685c-.2-.026-.4-.049-.59-.061a9.12,9.12,0,0,1-1.883-.657c-.1.1-.188.2-.281.3a9.59,9.59,0,0,0,2.137.743c.579.039,1.354.18,1.542.215a22.312,22.312,0,0,1,2.552,1.788,9.652,9.652,0,0,1,2.568,4.788,16.211,16.211,0,0,1,.311,2.9c.116-.151.24-.3.37-.436a19.772,19.772,0,0,0-.311-2.529" transform="translate(-657.635 -502.983)" fill="#fff"/>
      <path id="Path_422" data-name="Path 422" d="M714.318,526.063l.031-.005c.118-.025.231-.055.339-.089-.006-.1-.01-.414-.011-.487,0-.619-.082-2.22-.086-2.288a.188.188,0,1,0-.375.019c0,.017.08,1.661.085,2.272,0,.1.007.442.015.579" transform="translate(-686.409 -512.962)" fill="#fff"/>
      <path id="Path_423" data-name="Path 423" d="M659.8,547.925a8.681,8.681,0,0,1,.3-1.977,3.87,3.87,0,0,1,.577-.978,5.081,5.081,0,0,0,.359-.538c.112-.208.669-1.688.732-1.856a.193.193,0,0,0-.11-.248.189.189,0,0,0-.245.111c-.244.65-.636,1.669-.711,1.809a4.851,4.851,0,0,1-.332.495,4.138,4.138,0,0,0-.633,1.088,9.213,9.213,0,0,0-.322,2.094h.38" transform="translate(-653.239 -524.646)" fill="#fff"/>
    </g>
  </g>
  <g id="Group_62" data-name="Group 62" transform="translate(0.472 0.686)">
    <g id="Group_61" data-name="Group 61" clip-path="url(#clip-path-4)">
      <path id="Path_425" data-name="Path 425" d="M602.535,434.779c-.02-.032-.039-.065-.06-.1a2.319,2.319,0,0,0,.552.064,2.292,2.292,0,0,0,2.207-2.855l.1.062.045.027.1.058c.055.031.111.06.167.089l.036.018.078.039c.008.084.013.17.013.257a2.77,2.77,0,0,1-2.751,2.782c-.087,0-.172,0-.257-.011-.014-.028-.028-.055-.042-.082l-.014-.028c-.03-.058-.061-.115-.094-.172-.017-.031-.035-.062-.053-.092l-.035-.058m-4.5,6.064h0l-.031,0a3.306,3.306,0,0,1-3.32-3.284c0-.01,0-.021,0-.031h0c-.155.055-.312.1-.474.145a3.781,3.781,0,0,0,3.685,3.644q.059-.242.139-.475m.727,1.538a4.319,4.319,0,0,1,4.071-4.117c-.015-.1-.026-.206-.036-.311,0-.054-.011-.108-.013-.163a4.8,4.8,0,0,0-4.5,4.548c.062,0,.122.008.183.013.1.008.2.018.292.031m-.465-2.166.016-.034c.029-.057.059-.113.09-.169.018-.034.037-.066.056-.1l.029-.049.062-.1h0a2.289,2.289,0,0,1-2.855-2.207,2.253,2.253,0,0,1,.065-.552v0l-.1.06-.061.036-.09.053q-.086.048-.174.095l-.025.013-.084.043c-.008.084-.012.17-.011.257A2.77,2.77,0,0,0,598,440.309c.086,0,.172-.006.257-.014.012-.026.026-.053.039-.08m4.736-4.457H603q.083.233.145.474a3.781,3.781,0,0,0,3.644-3.685q-.242-.059-.475-.139c0,.01,0,.02,0,.031a3.306,3.306,0,0,1-3.283,3.321m-11.889-3.235a1.756,1.756,0,1,1,1.765,1.746,1.758,1.758,0,0,1-1.765-1.746m.477,0a1.279,1.279,0,1,0,1.272-1.286,1.28,1.28,0,0,0-1.272,1.286m11.4,1.691a1.755,1.755,0,1,1,1.746-1.765,1.758,1.758,0,0,1-1.746,1.765m1.269-1.763a1.279,1.279,0,1,0-1.272,1.286,1.28,1.28,0,0,0,1.272-1.286m-6.086.474c-.008.1-.018.207-.032.31h0a4.319,4.319,0,0,1,4.116,4.071h0c.108-.016.218-.028.328-.037l.146-.012a4.8,4.8,0,0,0-4.548-4.5c0,.055-.007.11-.012.165m-.513-.712c0-.054.007-.108.011-.162.009-.105.019-.209.033-.313h0a4.319,4.319,0,0,1-4.117-4.071h0c-.1.014-.193.026-.291.035-.06.005-.122.011-.183.015a4.8,4.8,0,0,0,4.547,4.5m-4.782,2.593a2.319,2.319,0,0,1-.552-.065c.021.032.04.065.06.1l.035.058c.018.031.036.061.053.092.032.057.064.114.094.172l.014.028.042.082c.084.007.171.012.257.011a2.77,2.77,0,0,0,2.751-2.782c0-.087-.005-.172-.014-.257l-.078-.039-.036-.018c-.056-.029-.112-.058-.167-.089-.034-.019-.067-.038-.1-.058l-.046-.027-.1-.062a2.289,2.289,0,0,1-2.207,2.855m3.318,2.748A1.756,1.756,0,1,1,598,439.3a1.758,1.758,0,0,1-1.765-1.746m.476,0a1.279,1.279,0,1,0,1.272-1.286,1.281,1.281,0,0,0-1.272,1.286m-3.788-1.734h-.031c.055.155.1.313.145.474a3.782,3.782,0,0,0,3.644-3.685q-.242-.059-.475-.139c0,.01,0,.021,0,.031a3.306,3.306,0,0,1-3.284,3.321m5.017-1.574h.031a3.306,3.306,0,0,1,3.321,3.284c0,.01,0,.021,0,.031h0c.155-.055.312-.1.474-.144a3.782,3.782,0,0,0-3.686-3.644c-.039.162-.086.32-.139.475m-.263.63-.015.03q-.044.088-.091.173c-.017.031-.034.061-.052.092s-.023.04-.036.06l-.058.1h0a2.24,2.24,0,0,1,.551-.071,2.289,2.289,0,0,1,2.239,2.829h0l.1-.065.045-.027.1-.059c.054-.031.11-.061.166-.091l.035-.018.078-.039c.007-.085.012-.17.011-.257a2.77,2.77,0,0,0-2.783-2.751c-.086,0-.172.006-.257.014-.013.027-.027.055-.04.082m-.464-2.168a4.319,4.319,0,0,1-4.071,4.117c.015.1.026.2.035.309.005.055.01.109.013.165a4.8,4.8,0,0,0,4.5-4.548c-.049,0-.1-.007-.144-.01-.111-.007-.221-.018-.33-.033m5.518-5.028a4.8,4.8,0,0,0-4.5,4.547c.062,0,.122.008.183.013.1.008.2.018.291.031a4.32,4.32,0,0,1,4.071-4.117c-.015-.1-.026-.206-.035-.311,0-.054-.01-.108-.013-.163m.272,2.014a2.77,2.77,0,0,0-2.751,2.782c0,.086.006.172.014.257l.084.041.027.014q.088.044.174.092l.089.051.063.037.1.057a2.29,2.29,0,0,1,2.759-2.791c-.022-.034-.042-.068-.063-.1l-.029-.048c-.02-.033-.039-.065-.057-.1-.032-.055-.062-.111-.092-.168l-.017-.034c-.014-.026-.028-.052-.041-.079-.085-.008-.17-.011-.257-.011m-3.76,2.677q.241.059.475.139c0-.01,0-.02,0-.031A3.306,3.306,0,0,1,603,429.154h.03c-.055-.154-.1-.313-.144-.473a3.781,3.781,0,0,0-3.644,3.685m3.958-5.719c.015.1.026.205.035.309.005.055.01.11.014.165a4.8,4.8,0,0,0,4.5-4.548l-.145-.01c-.11-.008-.221-.019-.33-.034a4.319,4.319,0,0,1-4.071,4.117m-.961.541h0c.108-.016.218-.028.328-.038.048,0,.1-.009.146-.011a4.8,4.8,0,0,0-4.548-4.5c0,.055-.007.11-.012.165-.008.1-.018.208-.032.31h0a4.318,4.318,0,0,1,4.116,4.071m-.919,15.392a1.755,1.755,0,1,1,1.765,1.745,1.757,1.757,0,0,1-1.765-1.745m.476,0a1.279,1.279,0,1,0,1.272-1.287,1.28,1.28,0,0,0-1.272,1.287m-7.931-3.771a4.578,4.578,0,0,1-.343-1.026c-.1.014-.033.025-.131.034-.061.006-.121.011-.183.015a4.8,4.8,0,0,0,4.548,4.5c0-.055.007-.109.011-.163.008-.1.019-.209.033-.312h0a4.323,4.323,0,0,1-3.934-3.045m-.914,2.066a1.755,1.755,0,1,1-1.746,1.765,1.757,1.757,0,0,1,1.746-1.765m-1.269,1.763a1.279,1.279,0,1,0,1.272-1.287,1.28,1.28,0,0,0-1.272,1.287m11,4.745c.048,0,.1-.009.145-.011a4.8,4.8,0,0,0-4.548-4.5c0,.055-.007.11-.011.165-.008.1-.019.207-.032.31h0a4.319,4.319,0,0,1,4.117,4.071h0c.109-.016.219-.028.329-.038m5.412-11.651a1.756,1.756,0,1,1-1.745,1.765,1.757,1.757,0,0,1,1.745-1.765m0,.476a1.279,1.279,0,1,0,1.287,1.272,1.28,1.28,0,0,0-1.287-1.272m-2.218.738-.1.06-.06.037-.09.052c-.058.032-.115.064-.174.095l-.025.013-.084.043c-.008.084-.012.17-.011.257a2.769,2.769,0,0,0,2.783,2.751c.086,0,.172-.005.256-.013.012-.026.026-.053.039-.08l.016-.034c.029-.057.059-.113.09-.169.018-.034.037-.066.056-.1l.029-.049.063-.1h0a2.266,2.266,0,0,1-.551.071,2.289,2.289,0,0,1-2.239-2.83Zm-2.429-9.3c-.061.006-.122.011-.183.015a4.8,4.8,0,0,0,4.548,4.5c0-.054.007-.109.011-.162.008-.1.019-.209.033-.313h0a4.319,4.319,0,0,1-4.117-4.071h0c-.1.014-.193.025-.291.035M598.371,450.3c.029-.057.059-.113.09-.169.018-.034.037-.066.056-.1l.029-.049.062-.1h0a2.27,2.27,0,0,1-.551.071,2.289,2.289,0,0,1-2.239-2.829v0l-.1.06-.062.037c-.029.018-.059.036-.089.053-.057.032-.115.064-.174.095l-.025.013-.084.043c-.008.084-.011.17-.011.257a2.77,2.77,0,0,0,2.783,2.752c.086,0,.172-.006.257-.014.012-.027.026-.053.039-.08l.016-.034m-.309.663a3.305,3.305,0,0,1-3.321-3.284c0-.01,0-.02,0-.03h0c-.155.055-.312.1-.474.145a3.781,3.781,0,0,0,3.686,3.644c.039-.161.086-.32.139-.475h-.032m2.207-2.762.1-.064.045-.028c.034-.019.067-.04.1-.058.055-.031.111-.062.167-.09l.035-.019.078-.039c.007-.084.011-.17.011-.257a2.769,2.769,0,0,0-2.782-2.751c-.087,0-.172.005-.257.014l-.04.082-.015.03c-.029.058-.06.116-.091.173-.017.03-.034.061-.053.091l-.035.06-.059.1h0a2.291,2.291,0,0,1,2.791,2.759h0m1.076-.528c.155-.055.312-.1.474-.145a3.782,3.782,0,0,0-3.686-3.644c-.039.161-.086.32-.139.475h.032a3.306,3.306,0,0,1,3.321,3.284c0,.01,0,.02,0,.03Zm-13.435-3.257a3.306,3.306,0,0,1,3.321,3.284c0,.01,0,.02,0,.03h0c.155-.055.312-.1.474-.145a3.781,3.781,0,0,0-3.686-3.644q-.059.242-.139.474h.032m8.378,3.254a1.755,1.755,0,1,1,1.765,1.746,1.757,1.757,0,0,1-1.765-1.746m.476,0a1.279,1.279,0,1,0,1.272-1.286,1.28,1.28,0,0,0-1.272,1.286m9.638-.055a1.755,1.755,0,1,1,1.765,1.746,1.758,1.758,0,0,1-1.765-1.746m.476,0a1.279,1.279,0,1,0,1.272-1.286,1.28,1.28,0,0,0-1.272,1.286m-18.964-2.183a2.291,2.291,0,0,1,2.239,2.83h0l.1-.065.045-.028.1-.058q.082-.047.167-.091l.035-.018.078-.039c.007-.084.011-.17.011-.257a2.77,2.77,0,0,0-2.783-2.751c-.086,0-.172.005-.257.014l-.04.082c-.005.01-.009.02-.015.03-.029.058-.06.116-.091.173l-.052.091-.035.06-.059.1h0a2.286,2.286,0,0,1,.551-.07m4.32,2.051h0c.108-.016.218-.028.329-.037.049,0,.1-.009.145-.012a4.8,4.8,0,0,0-4.547-4.5c0,.055-.007.11-.011.165-.009.1-.019.208-.033.309h0a4.32,4.32,0,0,1,4.117,4.071m16.251,2.764c.029-.057.059-.113.09-.169.018-.034.037-.066.056-.1l.029-.049c.021-.034.041-.069.063-.1h0a2.288,2.288,0,0,1-2.79-2.759v0l-.1.06-.06.037-.09.053c-.058.032-.116.064-.174.095l-.025.013-.084.043c-.008.085-.012.17-.011.257a2.77,2.77,0,0,0,2.783,2.752c.086,0,.172-.006.256-.014.012-.027.026-.053.039-.08l.017-.034m-20.539.777a3.306,3.306,0,0,1-3.321-3.284c0-.01,0-.02,0-.03h0c-.155.055-.313.1-.474.145a3.781,3.781,0,0,0,3.685,3.644c.039-.161.086-.32.14-.475h-.032m20.229-.114a3.306,3.306,0,0,1-3.321-3.284c0-.01,0-.02,0-.03h0c-.155.055-.312.1-.474.145a3.782,3.782,0,0,0,3.686,3.644q.059-.242.139-.475h-.032m-10.261-25.765a2.289,2.289,0,0,1,2.239,2.83h0l.1-.065.045-.027.1-.059c.055-.031.11-.061.166-.091l.035-.018.078-.039c.007-.085.011-.17.011-.257a2.77,2.77,0,0,0-2.783-2.752c-.086,0-.172.006-.256.014-.013.027-.027.054-.04.082l-.015.03c-.029.058-.06.116-.091.173q-.025.046-.052.091l-.035.06-.059.1h0a2.259,2.259,0,0,1,.55-.071m-1.742,2.3a1.755,1.755,0,1,1,1.765,1.745,1.758,1.758,0,0,1-1.765-1.745m.476,0a1.279,1.279,0,1,0,1.272-1.286,1.28,1.28,0,0,0-1.272,1.286m-8.393,22.919q.044-.086.09-.169c.018-.034.037-.066.056-.1l.029-.049c.021-.034.041-.069.063-.1h0a2.253,2.253,0,0,1-.551.071,2.289,2.289,0,0,1-2.239-2.829v0c-.032.021-.063.04-.1.06l-.06.037-.09.052c-.058.032-.115.064-.174.095l-.025.013-.084.043c-.007.084-.011.17-.011.256a2.77,2.77,0,0,0,2.783,2.752c.086,0,.172-.006.256-.014l.039-.08c.006-.011.011-.022.017-.033M607.8,432.689c-.049,0-.1-.007-.144-.01-.111-.008-.221-.018-.33-.033a4.32,4.32,0,0,1-4.071,4.117c.015.1.027.2.035.309.005.054.01.109.014.165a4.8,4.8,0,0,0,4.5-4.548m-4.74,7.591a2.291,2.291,0,0,1,.552.064c-.022-.033-.042-.068-.063-.1-.01-.016-.02-.032-.029-.048-.019-.032-.039-.065-.058-.1q-.047-.083-.091-.168l-.017-.033c-.013-.026-.027-.052-.04-.079-.084-.007-.171-.011-.257-.011a2.77,2.77,0,0,0-2.751,2.783c0,.086.005.172.013.257.028.013.056.027.084.041l.027.013c.058.03.117.06.174.092l.089.051.063.037c.032.019.064.037.1.056a2.289,2.289,0,0,1,2.207-2.855m-5.115-10.087c.087,0,.172-.005.257-.013.012-.027.026-.054.04-.08l.016-.034c.029-.056.058-.113.09-.169.018-.034.037-.066.056-.1l.029-.049.062-.1h0a2.291,2.291,0,0,1-2.791-2.759h0l-.1.06-.061.037-.09.052c-.057.033-.115.064-.174.094l-.025.013-.084.043c-.007.084-.011.17-.011.257a2.77,2.77,0,0,0,2.782,2.751m10.206,10.592h-.031A3.306,3.306,0,0,1,604.8,437.5c0-.011,0-.021,0-.031h0q-.232.083-.473.144a3.783,3.783,0,0,0,3.685,3.645q.059-.243.139-.476m-3.409-13.4c0-.01,0-.02,0-.03h0c-.155.055-.313.1-.474.145a3.781,3.781,0,0,0,3.685,3.644c.039-.161.086-.32.139-.474h-.031a3.306,3.306,0,0,1-3.321-3.284m-6.831-3.263a3.305,3.305,0,0,1,3.321,3.283c0,.01,0,.021,0,.031h0c.155-.055.313-.1.474-.145a3.781,3.781,0,0,0-3.686-3.644c-.039.161-.086.319-.139.474h.032m-.071,7.078c.039-.161.086-.32.139-.474h-.032a3.306,3.306,0,0,1-3.321-3.284c0-.01,0-.02,0-.03h0c-.155.055-.312.1-.474.145a3.781,3.781,0,0,0,3.686,3.644m-11.667,16.521a1.756,1.756,0,1,1,1.765,1.746,1.758,1.758,0,0,1-1.765-1.746m.476,0a1.279,1.279,0,1,0,1.272-1.286,1.28,1.28,0,0,0-1.272,1.286m16.4-8.453h.03c-.055-.155-.1-.313-.144-.474a3.782,3.782,0,0,0-3.644,3.686c.161.039.32.086.475.138,0-.01,0-.02,0-.03a3.306,3.306,0,0,1,3.284-3.321M593,450.987a1.758,1.758,0,0,0-1.746,1.765l.476,0a1.279,1.279,0,0,1,2.558-.014l.476,0A1.757,1.757,0,0,0,593,450.987m0-.535a2.291,2.291,0,0,1,.552.064c-.021-.033-.041-.068-.063-.1l-.029-.049-.058-.1q-.047-.083-.091-.168l-.017-.033-.04-.079c-.084-.007-.17-.012-.257-.011a2.77,2.77,0,0,0-2.751,2.782h0l.476,0h0a2.293,2.293,0,0,1,2.277-2.3M593,449.441h.031q-.083-.232-.144-.473a3.781,3.781,0,0,0-3.644,3.685c.13.032.257.068.384.109h.09A3.306,3.306,0,0,1,593,449.441m10.115-.057h.03c-.055-.155-.1-.313-.144-.474a3.781,3.781,0,0,0-3.644,3.685c.129.032.257.068.383.109h.091a3.306,3.306,0,0,1,3.284-3.321m.009,1.547a1.757,1.757,0,0,0-1.746,1.765l.476,0a1.279,1.279,0,0,1,2.558-.014l.476,0a1.757,1.757,0,0,0-1.765-1.745m0-.536a2.294,2.294,0,0,1,.552.064c-.021-.033-.041-.068-.062-.1l-.029-.049c-.019-.032-.039-.065-.058-.1-.031-.055-.062-.112-.091-.168l-.017-.033-.04-.079c-.084-.007-.17-.012-.257-.011a2.77,2.77,0,0,0-2.751,2.782h0l.476,0h0a2.293,2.293,0,0,1,2.278-2.3m10.118.478a1.757,1.757,0,0,0-1.745,1.765l.476,0a1.281,1.281,0,0,1,1.272-1.286Zm-.009-1.547v-.09c-.042-.126-.08-.253-.112-.383a3.783,3.783,0,0,0-3.645,3.686c.13.031.258.068.384.109h.091a3.306,3.306,0,0,1,3.283-3.32m.006,1.012,0-.476a2.769,2.769,0,0,0-2.75,2.782l.476,0a2.293,2.293,0,0,1,2.278-2.3m-10.143-5a2.77,2.77,0,0,0,2.751-2.782c0-.086-.005-.173-.014-.257l-.078-.039-.036-.018c-.056-.028-.112-.058-.167-.088l-.1-.057-.046-.027-.105-.063a2.289,2.289,0,0,1-2.759,2.79c.021.032.039.065.06.1s.024.038.035.058l.054.092c.032.056.064.114.094.172l.014.028.043.083c.085.007.17.011.257.011m3.76-2.677q-.242-.059-.475-.139c0,.01,0,.021,0,.031a3.306,3.306,0,0,1-3.284,3.321h-.03c.054.154.1.312.144.473a3.782,3.782,0,0,0,3.644-3.685M593.736,447.9h0c-.1.014-.193.025-.291.035-.061.006-.122.011-.184.014a4.8,4.8,0,0,0,4.548,4.5c0-.054.007-.108.011-.163.009-.1.019-.209.032-.312h0a4.319,4.319,0,0,1-4.117-4.071m19.269.426c-.015-.1-.026-.207-.036-.311,0-.054-.01-.108-.013-.163a4.8,4.8,0,0,0-4.5,4.547c.062,0,.122.008.183.013.1.008.2.018.292.031a4.319,4.319,0,0,1,4.071-4.117m-19.76-.912a4.8,4.8,0,0,0,4.5-4.548c-.049,0-.1-.006-.145-.009-.111-.008-.221-.019-.33-.034a4.32,4.32,0,0,1-4.071,4.117c.015.1.026.2.035.309.005.055.01.11.014.166m10.115-.057a4.8,4.8,0,0,0,4.5-4.548c-.049,0-.1-.006-.145-.009-.111-.008-.222-.019-.33-.034a4.32,4.32,0,0,1-4.071,4.117q.022.153.035.309c.005.055.011.11.014.166m.491.486h0q-.144.021-.291.035c-.06.006-.122.011-.183.015a4.8,4.8,0,0,0,4.547,4.5c0-.054.007-.108.011-.163.009-.1.019-.209.033-.312h0a4.319,4.319,0,0,1-4.117-4.071m-.961.541c-.015-.1-.026-.207-.036-.311,0-.054-.011-.108-.013-.163a4.8,4.8,0,0,0-4.5,4.547c.062,0,.122.007.183.013.1.008.2.018.292.031a4.319,4.319,0,0,1,4.071-4.117m-6.157-5.661q-.242-.059-.475-.139c0,.01,0,.021,0,.03a3.306,3.306,0,0,1-3.284,3.321h-.031c.055.154.1.312.144.473a3.781,3.781,0,0,0,3.644-3.685m-3.958,5.719c-.015-.1-.026-.207-.036-.311,0-.054-.01-.108-.013-.163a4.8,4.8,0,0,0-4.5,4.548c.062,0,.122.007.183.013.1.008.2.018.292.031a4.319,4.319,0,0,1,4.071-4.117m-.263-3.426c.018.03.037.061.054.092.032.056.063.114.094.172l.014.028.042.083c.084.007.17.011.257.011a2.77,2.77,0,0,0,2.751-2.782c0-.086-.005-.172-.013-.257l-.078-.039-.036-.018c-.057-.028-.112-.058-.167-.088l-.1-.058-.045-.026-.105-.063a2.29,2.29,0,0,1-2.207,2.855,2.28,2.28,0,0,1-.552-.065c.021.032.04.065.06.1l.035.058m-8.891,2.943h0c-.1.014-.193.025-.291.035-.061.006-.122.011-.183.015a4.8,4.8,0,0,0,4.548,4.5c0-.054.007-.108.011-.163.009-.1.019-.209.032-.312h0a4.319,4.319,0,0,1-4.117-4.071m19.355-22.309h-.031q.083.233.144.474a3.781,3.781,0,0,0,3.644-3.685c-.13-.032-.257-.068-.384-.109h-.09a3.306,3.306,0,0,1-3.283,3.321m-.463-.921c.018.03.036.061.053.092.032.057.064.114.094.172l.015.028.042.082c.085.008.17.012.257.011a2.77,2.77,0,0,0,2.751-2.782l-.476,0a2.292,2.292,0,0,1-2.83,2.239c.021.032.04.065.06.1l.035.058m5.445,17.551c.007-.158.014-.317.018-.474l-.065-.005h0a4.319,4.319,0,0,1-4.117-4.071c-.1.014-.193.025-.291.034-.061.006-.122.011-.183.015a4.8,4.8,0,0,0,4.548,4.5Z" transform="translate(-586.853 -424.169)" fill="#fff"/>
    </g>
  </g>
  <g id="Group_64" data-name="Group 64" transform="translate(33.113 8.441)">
    <g id="Group_63" data-name="Group 63" clip-path="url(#clip-path-5)">
      <path id="Path_427" data-name="Path 427" d="M686.756,491.754c.016.072,1.66,6.636,2.194,8.589a13.567,13.567,0,0,1-2.194-8.589" transform="translate(-682.171 -473.953)" fill="#fff"/>
      <path id="Path_428" data-name="Path 428" d="M686.961,481.475a79.893,79.893,0,0,0,4,11.185c-1.586-1.545-4.512-6.539-4-11.185" transform="translate(-682.299 -467.731)" fill="#fff"/>
      <path id="Path_429" data-name="Path 429" d="M687.979,475.109c.48,2.9,1.476,4.785,3.5,8.655l1.315,2.443c.021-.01-.043.009-.022.018-.011-.02-.036-.061-.049-.08.006.005.071.06.075.067s-.036.027-.021.021c-2.15-1.553-5.3-6.595-4.8-11.124" transform="translate(-682.919 -463.878)" fill="#fff"/>
      <path id="Path_430" data-name="Path 430" d="M688.7,471.06c.557,2.714,4.127,7.612,5.769,10.262-2.9-2.488-6.131-6.473-5.769-10.262" transform="translate(-683.369 -461.427)" fill="#fff"/>
      <path id="Path_431" data-name="Path 431" d="M689.611,466.894c.526,2.527,3.982,6.18,6.424,10.121-2.823-2.447-6.744-6.442-6.424-10.121" transform="translate(-683.928 -458.905)" fill="#fff"/>
      <path id="Path_432" data-name="Path 432" d="M690.509,463.542c.52,2.387,4.188,4.826,7.331,9.7-3.335-2.9-7.57-6.5-7.331-9.7" transform="translate(-684.477 -456.876)" fill="#fff"/>
      <path id="Path_433" data-name="Path 433" d="M691.466,460.906c.482,2.022,5.279,3.985,8.264,8.712-4.185-3.562-8.416-6.2-8.264-8.712" transform="translate(-685.06 -455.28)" fill="#fff"/>
      <path id="Path_434" data-name="Path 434" d="M692.214,458.31c.265.994,1.5,1.244,3.94,2.709a17.313,17.313,0,0,1,5.251,5.021c-4.851-4.074-9.262-5.82-9.191-7.73" transform="translate(-685.515 -453.709)" fill="#fff"/>
      <path id="Path_435" data-name="Path 435" d="M692.806,456.278a.449.449,0,0,0,.139.25c.871.789,6.229.377,9.969,6.141-4.169-3.632-7.045-4.125-9.386-5.522-.864-.506-.723-.869-.723-.869" transform="translate(-685.868 -452.479)" fill="#fff"/>
      <path id="Path_436" data-name="Path 436" d="M693.614,454.816s-.035.165.448.173a10.643,10.643,0,0,1,10.644,4.921,15.883,15.883,0,0,0-6.263-3.693c-2.81-.968-4.839-.867-4.829-1.4" transform="translate(-686.363 -451.594)" fill="#fff"/>
      <path id="Path_437" data-name="Path 437" d="M693.982,451.839s-.075.1.535-.119c4.914-1.748,8.833-.113,11.559,4-3.157-2.815-6.266-4.26-10.859-3.9a4.785,4.785,0,0,1-1.218.056.036.036,0,0,1-.018-.036" transform="translate(-686.583 -449.299)" fill="#fff"/>
      <path id="Path_438" data-name="Path 438" d="M694.47,448.488c2.825-2.516,8.618-3.107,12.921,2.934-2.908-2.579-5.551-4.161-9.718-3.743a9.974,9.974,0,0,0-3.2.809" transform="translate(-686.881 -446.671)" fill="#fff"/>
      <path id="Path_439" data-name="Path 439" d="M676.426,486.56a13.935,13.935,0,0,1-4.719,6.3,22.963,22.963,0,0,1,4.719-6.3" transform="translate(-673.102 -470.809)" fill="#fff"/>
      <path id="Path_440" data-name="Path 440" d="M674.005,480.026a12.711,12.711,0,0,1-7.07,6.83c.884-.548,1-.817,7.07-6.83" transform="translate(-670.213 -466.854)" fill="#fff"/>
      <path id="Path_441" data-name="Path 441" d="M672.269,474.808a11.871,11.871,0,0,1-8.73,6.46c.009.034-.022-.045-.014-.037s.1-.014.116-.016c0,0-.1.051-.1.053s-.022-.071-.013-.038c6.031-3.566,7.486-5.064,8.741-6.422" transform="translate(-668.148 -463.695)" fill="#fff"/>
      <path id="Path_442" data-name="Path 442" d="M671.6,470.865c-1.64,3.369-5.879,4.675-9.593,5.18,3.344-1.678,7.608-3.142,9.593-5.18" transform="translate(-667.229 -461.309)" fill="#fff"/>
      <path id="Path_443" data-name="Path 443" d="M672.223,466.531c-1.6,3.225-6.285,4.262-9.956,4.772,2.518-1.263,8.161-2.944,9.956-4.772" transform="translate(-667.387 -458.685)" fill="#fff"/>
      <path id="Path_444" data-name="Path 444" d="M672.172,463.178c-1.345,2.655-5.663,3.269-10.373,3.914,4.875-2.329,8.607-2.144,10.373-3.914" transform="translate(-667.104 -456.655)" fill="#fff"/>
      <path id="Path_445" data-name="Path 445" d="M688.05,438.756a73.11,73.11,0,0,0-4.33,17c-.149,1.1-.352,2.237-.59,3.316a26.1,26.1,0,0,0-.309,9.313,59.42,59.42,0,0,0,.833-8.5,40.944,40.944,0,0,1,.824-7.184,75.443,75.443,0,0,1,4.227-13.694Z" transform="translate(-679.66 -441.872)" fill="#fff"/>
      <path id="Path_446" data-name="Path 446" d="M718.544,493.365a76.132,76.132,0,0,1,10.963-2.8c-2.065-.43-7.567-.082-10.963,2.8" transform="translate(-701.454 -473.143)" fill="#fff"/>
      <path id="Path_447" data-name="Path 447" d="M714.053,498.1c2.549-1.167,4.565-1.383,8.7-1.845l2.63-.262c0,.022-.016-.039,0-.027l-.089,0c.008,0,.085.023.093.024s0-.043.005-.028c-2.372-.871-8.029-.672-11.339,2.134" transform="translate(-698.735 -476.225)" fill="#fff"/>
      <path id="Path_448" data-name="Path 448" d="M711.216,502.181c2.44-1,8.209-.793,11.177-.907-3.509-.966-8.377-1.4-11.177.907" transform="translate(-697.018 -479.244)" fill="#fff"/>
      <path id="Path_449" data-name="Path 449" d="M708.4,505.63c2.276-.93,7-.146,11.414-.315-3.436-.927-8.678-1.9-11.414.315" transform="translate(-695.316 -481.537)" fill="#fff"/>
      <path id="Path_450" data-name="Path 450" d="M706.229,508.767c2.162-.86,6.042.738,11.561.628-4.065-1.09-9.167-2.516-11.561-.628" transform="translate(-693.999 -483.694)" fill="#fff"/>
      <path id="Path_451" data-name="Path 451" d="M704.651,511.541c1.853-.7,5.958,2.048,11.281,1.888-5.042-1.409-9.381-3.343-11.281-1.888" transform="translate(-693.044 -485.618)" fill="#fff"/>
      <path id="Path_452" data-name="Path 452" d="M703,513.91c.925-.32,1.779.52,4.238,1.67A16.488,16.488,0,0,0,714,517.053c-5.8-1.663-9.529-4.216-11-3.143" transform="translate(-692.043 -487.211)" fill="#fff"/>
      <path id="Path_453" data-name="Path 453" d="M720.756,481.644a13.269,13.269,0,0,0,2.464-7.083,21.867,21.867,0,0,0-2.464,7.083" transform="translate(-702.793 -463.546)" fill="#fff"/>
      <path id="Path_454" data-name="Path 454" d="M716.227,482.779a12.108,12.108,0,0,0,1.63-9.221c.038.99-.11,1.228-1.63,9.221" transform="translate(-700.051 -462.939)" fill="#fff"/>
      <path id="Path_455" data-name="Path 455" d="M712.548,484.5A11.306,11.306,0,0,0,713,474.166c.032-.011-.047.007-.037.009s.042.088.049.1-.013-.106-.012-.108-.068.02-.037.01c.395,6.662-.013,8.609-.418,10.323" transform="translate(-697.824 -463.305)" fill="#fff"/>
      <path id="Path_456" data-name="Path 456" d="M708.212,487.1c1.788-3.089.562-7.132-1.017-10.335.455,3.535,1.569,7.682,1.017,10.335" transform="translate(-694.584 -464.882)" fill="#fff"/>
      <path id="Path_457" data-name="Path 457" d="M704.745,490.482c1.7-2.98.1-7.073-1.454-10.244.343,2.661,1.943,7.853,1.454,10.244" transform="translate(-692.221 -466.982)" fill="#fff"/>
      <path id="Path_458" data-name="Path 458" d="M700.911,492.683c1.381-2.476-.433-6.214-2.432-10.276.757,5.09,2.889,7.939,2.432,10.276" transform="translate(-689.308 -468.295)" fill="#fff"/>
      <path id="Path_459" data-name="Path 459" d="M697.075,495.657c1.072-1.988-1.108-5.168-3.529-9.982.758,5.386,3.9,7.921,3.529,9.982" transform="translate(-686.322 -470.274)" fill="#fff"/>
      <path id="Path_460" data-name="Path 460" d="M693.244,498.348c.787-1.549-2.078-3.962-4.859-9.446a13.66,13.66,0,0,0,3.12,6.715c1.2,1.431,1.864,1.9,1.739,2.731" transform="translate(-683.197 -472.227)" fill="#fff"/>
      <path id="Path_461" data-name="Path 461" d="M689.834,497.561a69.665,69.665,0,0,1,11.124-12.474c.786-.7,1.579-1.469,2.3-2.231a24.86,24.86,0,0,1,7.19-5.2,56.649,56.649,0,0,1-6.271,5.184,39,39,0,0,0-5.235,4.476,71.85,71.85,0,0,0-8.566,10.629Z" transform="translate(-684.075 -465.418)" fill="#fff"/>
    </g>
  </g>
  <g id="Group_66" data-name="Group 66">
    <g id="Group_65" data-name="Group 65" clip-path="url(#clip-path)">
      <path id="Path_463" data-name="Path 463" d="M639.374,429.129q-.233-.189-.459-.365H634.92a1.778,1.778,0,0,0-.063.365Z" transform="translate(-617.682 -427.382)" fill="#fff"/>
      <path id="Path_464" data-name="Path 464" d="M640.975,437l1.367-1.366a.089.089,0,0,1,.065-.027h2.034q-.156-.095-.312-.2h-1.982l-1.335,1.334a.089.089,0,0,1-.066.028h-2.788l.112.228Z" transform="translate(-619.56 -431.403)" fill="#fff"/>
      <path id="Path_465" data-name="Path 465" d="M638.674,426.229a1.819,1.819,0,0,0-2.608,0Z" transform="translate(-618.414 -425.533)" fill="#fff"/>
      <path id="Path_466" data-name="Path 466" d="M638.155,432.863a.307.307,0,0,1-.29-.213h-2.251c.118.251.242.506.369.766h2.84l1.335-1.334a.094.094,0,0,1,.065-.027h1.745c-.814-.566-1.61-1.253-2.368-1.879h-4.757a3.376,3.376,0,0,0,.117.789h4.18a.3.3,0,1,1-.015.193h-4.112c.052.171.113.347.182.527h1.452a.305.305,0,1,1-.015.192h-1.361c.078.193.165.389.256.589h2.337a.305.305,0,1,1,.29.4" transform="translate(-617.674 -428.237)" fill="#fff"/>
      <path id="Path_467" data-name="Path 467" d="M712.173,446.557a1.577,1.577,0,0,1,.475.163l-.37-.268Z" transform="translate(-664.484 -438.089)" fill="#fff"/>
      <path id="Path_468" data-name="Path 468" d="M664.4,437.562c.007-.285.013-.972.017-1.537a7.059,7.059,0,0,1-2,.685l.859.852Z" transform="translate(-634.365 -431.778)" fill="#fff"/>
      <path id="Path_469" data-name="Path 469" d="M638.865,427.8c-.147-.11-.292-.215-.436-.311h-3.056a1.52,1.52,0,0,0-.181.311Z" transform="translate(-617.886 -426.61)" fill="#fff"/>
      <path id="Path_470" data-name="Path 470" d="M700.03,442.732a.305.305,0,1,1,0-.192h.706l-.038.034a3.135,3.135,0,0,1,1.843-.827l.2-.2-.684-.5-.751.751a.3.3,0,0,1,.033.136.308.308,0,1,1-.169-.272l.729-.729-.727-.531-.1.1v.091a.305.305,0,1,1-.359.3.3.3,0,0,1,.174-.274v-.156a.091.091,0,0,1,.027-.066l.1-.1-.493-.361-.451.451v.219a.305.305,0,1,1-.185,0v-.258a.092.092,0,0,1,.027-.066l.458-.458-.938-.69v2.146l.393.394a.3.3,0,0,1,.152-.041.305.305,0,1,1-.305.305.294.294,0,0,1,.026-.12l-.459-.458v-2.368l-.611-.452v5.31a.091.091,0,0,1-.027.065l-1.906,1.907a.3.3,0,0,1,.035.14.3.3,0,0,1-.06.18c.19-.146.377-.29.558-.432l.14-.122.01,0c1.115-.9,2.146-2.051,3.119-2.86Zm-.63.519a.305.305,0,1,1,0-.192h.672l-.2.192Z" transform="translate(-655.103 -433.301)" fill="#fff"/>
      <path id="Path_471" data-name="Path 471" d="M655.06,442.935a.3.3,0,1,1,.169-.272.3.3,0,0,1-.033.136l.175.175c.682-.312,1.318-.633,1.913-.958v-.127h-2.721l-.863.864h-3.755a.305.305,0,1,1,0-.192h3.676l.864-.864h2.994v.213c.723-.4,1.386-.812,2-1.219a.274.274,0,0,1-.032-.06h-1.2l-.757.757a.091.091,0,0,1-.066.027h-4.961l-.241.241a.305.305,0,1,1-.118-.144l.254-.255a.092.092,0,0,1,.065-.027h4.962l.757-.757a.09.09,0,0,1,.065-.027h1.238a.307.307,0,0,1,.29-.213.293.293,0,0,1,.236.123q.24-.167.472-.332l-.191-.191V438.7l.869-.869a.3.3,0,0,1-.033-.136.305.305,0,1,1,.305.305.3.3,0,0,1-.136-.033l-.813.813v.973l.156.156q.365-.265.708-.525a.3.3,0,0,1-.108.021.305.305,0,0,1,0-.61.3.3,0,0,1,.14.034l1.88-1.879v-5.41l-.406-.3v4.858a.305.305,0,1,1-.186,0v-5l-.186-.14v4.673a.091.091,0,0,1-.028.066l-.271.271a.293.293,0,0,1,.013.087.307.307,0,1,1-.12-.242l.22-.22v-4.774l-.16-.12-.153-.116v3.965a.305.305,0,1,1-.185,0v-4.106l-.236-.18-.041.041v3.784a.092.092,0,0,1-.027.065l-1.24,1.24v.41a.306.306,0,1,1-.185,0v-.448a.09.09,0,0,1,.027-.065l1.24-1.24v-3.784a.091.091,0,0,1,.027-.066l.051-.051-.086-.066-.174.174v2.527l-1.328,1.328V437l.442.442a.3.3,0,0,1,.166-.051.305.305,0,1,1-.305.305.3.3,0,0,1,.018-.1l-.514-.514v-3.044l1.328-1.328v-2.527l.213-.212-.121-.094-1.579,1.579v3.126a.091.091,0,0,1-.027.066l-.361.361v2.572a.092.092,0,0,1-.027.065l-.278.278a.293.293,0,0,1,.016.1.306.306,0,1,1-.127-.247l.23-.23v-2.572a.092.092,0,0,1,.027-.065l.362-.361v-3.125a.091.091,0,0,1,.027-.066l1.589-1.589c-.5-.385-.973-.756-1.421-1.092v1.417a.305.305,0,1,1-.193,0v-1.561a5.674,5.674,0,0,0-2.453-1.32,3.539,3.539,0,0,0-.579.05l2.461,2.46a.093.093,0,0,1,.027.065v3.1a.094.094,0,0,1-.027.065l-1.578,1.578a.094.094,0,0,1-.066.027h-.573l-.544.544v2.334a.092.092,0,0,1-.027.066l-.594.594a.314.314,0,0,1,.012.082.306.306,0,1,1-.306-.305.3.3,0,0,1,.189.067l.541-.54v-2.334a.1.1,0,0,1,.027-.066l.6-.6a.093.093,0,0,1,.066-.027h.573l1.524-1.524v-3.022L656,427.294a5.509,5.509,0,0,0-1.035.352l3.265,3.265a.092.092,0,0,1,.027.065v1.72a.091.091,0,0,1-.028.066l-1.326,1.326a.092.092,0,0,1-.065.027h-.689l-.6.6v2.035a.092.092,0,0,1-.027.065l-.229.229a.309.309,0,1,1-.109-.153l.181-.18v-2.035a.092.092,0,0,1,.027-.065l.652-.652a.093.093,0,0,1,.066-.027h.689l1.272-1.272v-1.643l-3.287-3.287c-.152.073-.3.152-.457.235v1.75l.741.741a.1.1,0,0,1,.027.065v1.164a.305.305,0,1,1-.185,0v-1.126l-.741-.741a.093.093,0,0,1-.027-.065v-1.685q-.213.121-.426.251v5.128a.092.092,0,0,1-.028.066l-.076.076a.287.287,0,0,1,.015.092.305.305,0,1,1-.305-.305.3.3,0,0,1,.181.06l.027-.027v-4.975c-.339.212-.68.438-1.024.669v4.7l.353.353h1.2a.094.094,0,0,1,.066.027l.624.624a.094.094,0,0,1,.027.065v.655l.09.09a.3.3,0,0,1,.139-.034.307.307,0,1,1-.27.165l-.116-.116a.092.092,0,0,1-.027-.066V434.9l-.57-.57h-1.2a.093.093,0,0,1-.065-.027l-.407-.407a.092.092,0,0,1-.027-.066v-4.61l-.11.074v4.843l.516.516h1.019c.043,0,.09,0,.564.526a.092.092,0,0,1,.024.062v1.6a.093.093,0,0,1-.027.066l-.615.615a.3.3,0,0,1,.023.113.308.308,0,1,1-.142-.257l.575-.575V435.28a5.945,5.945,0,0,0-.426-.439h-1.035a.093.093,0,0,1-.066-.027l-.569-.57a.089.089,0,0,1-.027-.065v-4.758c-.148.1-.3.2-.444.292l.21.312a.08.08,0,0,1,.021.057v4.463l.488.488h1.115a.09.09,0,0,1,.065.027l.456.456a.092.092,0,0,1,.027.065v.812a.092.092,0,0,1-.028.066l-1.063,1.063v.534l.153.153h.845a.093.093,0,0,1,.065.027l.57.57h1.3l.518-.517a.305.305,0,1,1,.277.178.3.3,0,0,1-.152-.042l-.54.539a.091.091,0,0,1-.065.027h-1.375a.093.093,0,0,1-.065-.027l-.57-.57h-.845a.092.092,0,0,1-.065-.027l-.208-.207a.092.092,0,0,1-.027-.066v-.611a.092.092,0,0,1,.027-.065l1.064-1.064v-.736l-.4-.4h-1.115a.093.093,0,0,1-.065-.027l-.542-.542a.092.092,0,0,1-.027-.065v-4.469l-.2-.3-.2.126.148.244a.088.088,0,0,1,.021.058v4.5l1.043,1.043h.306a.305.305,0,1,1,0,.185H652.4a.09.09,0,0,1-.065-.027l-1.1-1.1a.09.09,0,0,1-.027-.065v-4.51l-.142-.234q-.151.094-.3.184l.262.265a.091.091,0,0,1,.027.065V436.4l.322.321a.3.3,0,0,1,.14-.035.305.305,0,1,1-.305.305.3.3,0,0,1,.035-.14l-.349-.349a.092.092,0,0,1-.027-.065v-5.852l-.27-.272-.15.085.195.211a.092.092,0,0,1,.026.064v4.086a.092.092,0,0,1-.031.068l-.344.311a.274.274,0,0,1,.008.067.305.305,0,1,1-.305-.305.3.3,0,0,1,.2.076l.287-.259v-4.007l-.2-.221-.164.088c0,.547-.009,1.259-.023,1.736l0,.093H648.7l-1.019-1.012a4.763,4.763,0,0,1-.542.034,4.384,4.384,0,0,1-2.066-.615h-2.319l-1.367,1.367a.092.092,0,0,1-.066.027h-2.852c.158.326.313.657.458.989h2.8l.962-.962a.093.093,0,0,1,.065-.027h2.194a.093.093,0,0,1,.066.027l.522.521h1.491a.093.093,0,0,1,.065.027l.442.443h.264l.31-.309a.093.093,0,0,1,.065-.027h.983a.092.092,0,0,1,.065.027l.62.62A.3.3,0,0,1,650,433.5a.305.305,0,1,1-.277.178l-.6-.6h-.906l-.309.309a.092.092,0,0,1-.066.027H647.5a.09.09,0,0,1-.066-.028l-.443-.442H645.5a.091.091,0,0,1-.065-.027l-.522-.522H642.8l-.962.962a.093.093,0,0,1-.066.027h-2.763c.031.075.062.149.092.224h2.826l.924-.923a.09.09,0,0,1,.066-.027h1.806a.09.09,0,0,1,.065.027l.474.474h1.574a.091.091,0,0,1,.066.028l.524.524h.814a.305.305,0,1,1,0,.185h-.853a.092.092,0,0,1-.066-.027l-.524-.524h-1.575a.092.092,0,0,1-.065-.027l-.474-.474h-1.729l-.924.923a.092.092,0,0,1-.065.027h-2.791c.024.062.048.124.071.186a.243.243,0,0,1,.009.025h3.2l.874-.874a.091.091,0,0,1,.065-.027h1.185a.092.092,0,0,1,.066.027l.44.44H646.7a.092.092,0,0,1,.066.027l.609.609h.8a.091.091,0,0,1,.066.027l.357.357a.3.3,0,0,1,.14-.035.305.305,0,1,1-.306.305.3.3,0,0,1,.035-.14l-.33-.33h-.8a.092.092,0,0,1-.065-.027l-.609-.609h-1.622a.092.092,0,0,1-.065-.027l-.44-.44h-1.108l-.874.874a.093.093,0,0,1-.065.027h-3.167l.1.266h3.19l.8-.8a.09.09,0,0,1,.065-.027h.286a.305.305,0,1,1,0,.185h-.247l-.8.8a.093.093,0,0,1-.065.027H639.48l.093.263h3.063l.6-.6a.091.091,0,0,1,.065-.027h.985l.353-.353a.092.092,0,0,1,.066-.027h1.883a.092.092,0,0,1,.066.027l.671.672a.3.3,0,0,1,.14-.035.305.305,0,1,1-.305.305.3.3,0,0,1,.035-.14l-.645-.644h-1.806l-.354.353a.091.091,0,0,1-.065.027h-.985l-.6.6a.092.092,0,0,1-.065.027h-3.039c.02.058.04.117.06.176h3.179l.532-.532a.093.093,0,0,1,.065-.027h1.016l.4-.4a.094.094,0,0,1,.066-.027H646a.092.092,0,0,1,.065.027l.267.266a.3.3,0,0,1,.081-.011.305.305,0,1,1-.305.305.3.3,0,0,1,.067-.189l-.213-.214H645l-.4.4a.094.094,0,0,1-.065.027H643.51l-.532.532a.093.093,0,0,1-.065.027h-3.155c.021.062.04.125.061.188h3.454l.139-.139a.3.3,0,0,1-.036-.141.305.305,0,1,1,.305.305.3.3,0,0,1-.138-.034l-.167.167a.09.09,0,0,1-.065.028h-3.432l.039.121h4.39l.445-.445a.091.091,0,0,1,.066-.027h1.253a.093.093,0,0,1,.065.027l.207.207a.3.3,0,1,1-.239.3.3.3,0,0,1,.075-.2l-.147-.147h-1.176l-.446.445a.091.091,0,0,1-.065.027h-4.371l.052.17h4.767l.156-.156a.306.306,0,1,1,.131.131l-.183.183a.092.092,0,0,1-.065.027h-4.749l.04.135h4.536a.094.094,0,0,1,.065.027l.24.241a.3.3,0,0,1,.14-.035.305.305,0,1,1-.305.305.3.3,0,0,1,.035-.14l-.214-.214h-4.444l.047.163h4.039a.092.092,0,0,1,.065.027l.552.551h3.707l1.132-1.132a.3.3,0,0,1-.023-.116.305.305,0,1,1,.305.305.3.3,0,0,1-.162-.047l-1.147,1.147a.092.092,0,0,1-.065.027H644.84a.092.092,0,0,1-.065-.027l-.551-.551h-3.949c.016.056.03.115.046.172h1.47a.093.093,0,0,1,.065.027l.854.854h1.939l.241-.241a.094.094,0,0,1,.066-.027h2.26a.09.09,0,0,1,.065.027l.29.289a.3.3,0,1,1-.18.278.3.3,0,0,1,.043-.154l-.256-.256h-2.184l-.241.241a.091.091,0,0,1-.065.027h-2.017a.09.09,0,0,1-.065-.027l-.854-.854H640.37c.013.049.026.1.039.148h1.224a.094.094,0,0,1,.066.027l.868.868h2.821a.3.3,0,1,1,0,.185h-2.86a.094.094,0,0,1-.066-.027l-.868-.868h-1.139l.039.164h.852a.091.091,0,0,1,.066.027l.874.867h2.791a.093.093,0,0,1,.065.027l.249.249h.67l.412-.412a.294.294,0,0,1-.026-.12.308.308,0,1,1,.148.26l-.43.43a.091.091,0,0,1-.066.027h-.747a.091.091,0,0,1-.065-.027l-.249-.249h-2.8a.089.089,0,0,1-.027,0H642.2v0a.1.1,0,0,1-.026-.018h0l-.868-.868h-.768c.023.1.046.2.068.3h.664l.847.847h2.763a.091.091,0,0,1,.066.027l.71.709h.148a.305.305,0,1,1,0,.185h-.187a.091.091,0,0,1-.065-.027l-.709-.71h-2.764a.092.092,0,0,1-.065-.027l-.827-.838h-.544q.134.612.249,1.268h2.381a.3.3,0,0,1,.29-.212.305.305,0,1,1-.29.4h-2.349l.012.068,1.357,1.374h2.971l4.162-4.163a.305.305,0,1,1,.277.178.293.293,0,0,1-.151-.041l-4.184,4.184a.091.091,0,0,1-.066.027h-3.048a.091.091,0,0,1-.066-.027l-1.2-1.22c.028.185.056.372.083.563l1.01,1.027h3.269l3.339-3.339a.1.1,0,0,1,.066-.027h1.7l.619-.619a.092.092,0,0,1,.065-.027h.089a.305.305,0,1,1,0,.185h-.05l-.619.618a.091.091,0,0,1-.065.028h-1.7l-3.339,3.339a.092.092,0,0,1-.065.027H642.04a.093.093,0,0,1-.065-.027l-.869-.885c.048.394.093.8.127,1.215h2.522a.3.3,0,1,1,0,.185h-2.509c.012.157.024.315.034.476h2.354a.092.092,0,0,1,.065.027l.262.262h1.4l.347-.347v-.842a.092.092,0,0,1,.027-.065l3.1-3.1a.092.092,0,0,1,.065-.027h1.876l.4-.4a.091.091,0,0,1,.065-.027h2.667a.092.092,0,0,1,.065.027l.456.456h2.414l.646-.646v-.86a.091.091,0,0,1,.027-.065l.652-.653a.3.3,0,0,1-.031-.132.305.305,0,1,1,.305.305.3.3,0,0,1-.147-.039l-.622.622v.86a.092.092,0,0,1-.027.065l-.7.7a.092.092,0,0,1-.066.027h-2.491a.092.092,0,0,1-.065-.027l-.456-.456h-2.591l-.4.4a.092.092,0,0,1-.065.027h-1.876l-3.05,3.05v.841a.091.091,0,0,1-.027.066l-.4.4a.091.091,0,0,1-.065.027h-1.479a.092.092,0,0,1-.065-.027l-.262-.262h-2.3c0,.075.007.152.01.228h1.688a.09.09,0,0,1,.065.027l.469.468h2.121l.6-.6v-.813a.092.092,0,0,1,.027-.065l2.7-2.7a.092.092,0,0,1,.065-.027h3.672a.093.093,0,0,1,.066.027l.727.727h3.7l2.282-2.282a.3.3,0,0,1-.015-.091.305.305,0,1,1,.306.305.3.3,0,0,1-.182-.061l-2.287,2.286a.091.091,0,0,1-.066.027h-3.773a.093.093,0,0,1-.066-.027l-.727-.727h-3.6l-2.643,2.643v.813a.091.091,0,0,1-.027.065l-.652.652a.094.094,0,0,1-.066.027h-2.2a.092.092,0,0,1-.066-.027l-.468-.468h-1.64c.005.118.012.232.016.352a19.232,19.232,0,0,0,4.795.807l.766-.767h.53v-1.244a.305.305,0,1,1,.193,0v1.437h-.643l-.587.587q.451.017.929.017c.317,0,.635-.016.953-.039l-.063-.063a.094.094,0,0,1-.027-.066v-1.04a.305.305,0,1,1,.185,0v1l.148.148A18.766,18.766,0,0,0,653,443.944c.778-.283,1.5-.579,2.183-.885Zm.247-8.808a.305.305,0,1,1-.305-.305.3.3,0,0,1,.131.03l.987-.987v-2.155l-.981-.981a.308.308,0,1,1,.136-.137l1.037,1.038v2.314l-1.04,1.04a.3.3,0,0,1,.035.142m-7.629-1.248a.306.306,0,0,1-.305-.305.3.3,0,0,1,.033-.136l-.577-.577h-3.692a.3.3,0,1,1,0-.192h3.771l.633.633a.3.3,0,1,1,.136.577m-4.114,5.18a.305.305,0,1,1,.305-.305.306.306,0,0,1-.305.305m6.435.41a.305.305,0,1,1,.305-.305.306.306,0,0,1-.305.305m-4.7,4.5a.305.305,0,1,1,.305-.305.306.306,0,0,1-.305.305m11.3-5.642a.3.3,0,0,1-.1-.594v-.991l.029-.028,1.6-1.6a.3.3,0,1,1,.134.138l-1.568,1.568v.911a.3.3,0,0,1-.1.594m1.81-1.664a.3.3,0,0,1-.134-.032l-.484.484a.3.3,0,0,1,.032.135.307.307,0,1,1-.167-.272l.482-.482a.3.3,0,1,1,.271.167m-5.507,8.189a.307.307,0,0,1-.29-.213H649.36a.093.093,0,0,1-.066-.027l-.685-.686a.092.092,0,0,1-.027-.065v-1.04a.305.305,0,1,1,.185,0v1l.631.631h3.216a.3.3,0,1,1,.29.4" transform="translate(-619.869 -426.436)" fill="#fff"/>
    </g>
  </g>
  <path id="Path_106382" data-name="Path 106382" d="M629.186,582.652a2.755,2.755,0,1,1-2.677,2.753,2.669,2.669,0,0,1,2.677-2.753m0,4.781a2.031,2.031,0,1,0-1.913-2.028,1.923,1.923,0,0,0,1.913,2.028" transform="translate(-598.893 -520.536)" fill="#fff"/>
  <path id="Path_106383" data-name="Path 106383" d="M649.135,587.051H648.6l-1.568-2.456v3.6h-.765v-5.355h.535l2.066,3.267,2.065-3.267h.536V588.2H650.7v-3.6Z" transform="translate(-610.852 -520.652)" fill="#fff"/>
</svg>
